# Blender v2.80 (sub 75) OBJ File: 'gate.blend'
# www.blender.org
mtllib 2x1.mtl
o Cube.124_Cube.409
v -0.826795 2.113333 -0.007770
v 1.580736 -0.000399 -0.798523
v -1.579264 1.919601 -0.798521
v 1.580736 1.919601 -0.798523
v -1.579264 -0.000399 -0.798521
v 1.580737 1.919601 0.778042
v -1.579263 -0.000399 0.778043
v 1.580737 -0.000399 0.778042
v -1.579263 1.919601 0.778043
v -0.799334 1.910682 -0.603874
v -0.799334 2.115422 -0.603874
v -0.279718 1.910682 -0.303874
v -0.279718 2.115422 -0.303874
v -0.279718 1.910682 0.296126
v -0.279718 2.115422 0.296126
v -0.799334 1.910682 0.596126
v -0.799334 2.115422 0.596126
v -1.318949 1.910682 0.296126
v -1.318949 2.115422 0.296126
v -1.318949 1.910682 -0.303874
v -1.318949 2.115422 -0.303874
v 0.807317 1.910682 -0.603874
v 0.807317 2.115422 -0.603874
v 1.326932 1.910682 -0.303874
v 1.326932 2.115422 -0.303874
v 1.326932 1.910682 0.296126
v 1.326932 2.115422 0.296126
v 0.807317 1.910682 0.596126
v 0.807317 2.115422 0.596126
v 0.287701 1.910682 0.296126
v 0.287701 2.115422 0.296126
v 0.287702 1.910682 -0.303874
v 0.287702 2.115422 -0.303874
v 0.807317 2.115422 -0.003874
v -0.799334 2.115422 -0.003874
vt 0.625000 0.875000
vt 0.375000 0.125000
vt 0.625000 0.625000
vt 0.375000 0.875000
vt 0.625000 0.687500
vt 0.375000 0.562500
vt 0.625000 0.812500
vt 0.375000 0.687500
vt 0.125000 0.562500
vt 0.375000 0.625000
vt 0.125000 0.625000
vt 0.375000 0.812500
vt 0.375000 0.062500
vt 0.625000 0.062500
vt 0.625000 0.125000
vt 0.375000 0.625000
vt 1.000000 0.500000
vt 1.000000 1.000000
vt 0.833333 1.000000
vt 0.833333 0.500000
vt 0.666667 1.000000
vt 0.666667 0.500000
vt 0.500000 1.000000
vt 0.500000 0.500000
vt 0.333333 1.000000
vt 0.333333 0.500000
vt 0.500000 1.000000
vt 0.166667 1.000000
vt 0.166667 0.500000
vt -0.000000 1.000000
vt -0.000000 0.500000
vt 1.000000 0.500000
vt 1.000000 1.000000
vt 0.833333 1.000000
vt 0.833333 0.500000
vt 0.666667 1.000000
vt 0.666667 0.500000
vt 0.500000 1.000000
vt 0.500000 0.500000
vt 0.333333 1.000000
vt 0.333333 0.500000
vt 0.833333 1.000000
vt 0.166667 1.000000
vt 0.166667 0.500000
vt -0.000000 1.000000
vt -0.000000 0.500000
vt 0.333333 1.000000
vt -0.000000 1.000000
vt 0.333333 1.000000
vt 0.666667 1.000000
vt 0.166667 1.000000
vt 0.833333 1.000000
vt -0.000000 1.000000
vt 0.500000 1.000000
vt 0.666667 1.000000
vt 0.166667 1.000000
vn -0.0000 0.0000 -1.0000
vn 0.0000 0.0000 1.0000
vn -1.0000 0.0000 0.0000
vn 0.0000 -1.0000 0.0000
vn 0.0000 1.0000 0.0000
vn 1.0000 0.0000 -0.0000
vn 0.5000 0.0000 -0.8660
vn 0.5000 0.0000 0.8660
vn -0.5000 0.0000 0.8660
vn -0.5000 0.0000 -0.8660
usemtl red.006
s off
f 5/1/1 3/2/1 4/3/1 2/4/1
f 6/5/2 9/6/2 7/7/2 8/8/2
f 7/9/3 9/6/3 3/10/3 5/11/3
f 8/12/4 7/7/4 5/1/4 2/4/4
f 9/13/5 6/14/5 4/15/5 3/2/5
f 2/16/6 4/3/6 6/5/6 8/8/6
f 10/17/7 11/18/7 13/19/7 12/20/7
f 12/20/6 13/19/6 15/21/6 14/22/6
f 14/22/8 15/21/8 17/23/8 16/24/8
f 16/24/9 17/23/9 19/25/9 18/26/9
f 17/23/5 15/21/5 35/27/5
f 18/26/3 19/25/3 21/28/3 20/29/3
f 20/29/10 21/28/10 11/30/10 10/31/10
f 22/32/7 23/33/7 25/34/7 24/35/7
f 24/35/6 25/34/6 27/36/6 26/37/6
f 26/37/8 27/36/8 29/38/8 28/39/8
f 28/39/9 29/38/9 31/40/9 30/41/9
f 25/34/5 23/33/5 34/42/5
f 30/41/3 31/40/3 33/43/3 32/44/3
f 32/44/10 33/43/10 23/45/10 22/46/10
f 31/40/5 29/38/5 34/47/5
f 11/30/5 21/28/5 35/48/5
f 19/25/5 17/23/5 35/49/5
f 15/21/5 13/19/5 35/50/5
f 21/28/5 19/25/5 35/51/5
f 13/19/5 11/18/5 35/52/5
f 23/45/5 33/43/5 34/53/5
f 29/38/5 27/36/5 34/54/5
f 27/36/5 25/34/5 34/55/5
f 33/43/5 31/40/5 34/56/5
