# Blender v2.80 (sub 75) OBJ File: 'gate.blend'
# www.blender.org
mtllib 2x1_window.mtl
o Cube.129_Cube.414
v -0.790116 0.000236 -1.583874
v -0.790115 3.840235 1.576126
v -0.790116 3.840235 -1.583874
v -0.790115 0.000236 1.576126
v 0.786448 3.840235 -1.583875
v 0.786450 0.000236 1.576126
v 0.786448 0.000236 -1.583875
v 0.786450 3.840235 1.576126
v -0.790115 0.997830 1.576126
v -0.790116 0.997830 -1.583874
v 0.786450 0.997830 1.576126
v 0.786448 0.997830 -1.583875
v -0.790115 0.000236 0.996793
v -0.790116 0.000236 -1.004540
v -0.790116 3.840235 -1.004540
v -0.790115 3.840235 0.996793
v 0.786449 3.840235 -1.004542
v 0.786449 3.840235 0.996792
v 0.786449 0.000236 0.996792
v 0.786449 0.000236 -1.004542
v -0.790115 0.997830 0.996793
v -0.790116 0.997830 -1.004540
v 0.786449 0.997830 0.996792
v 0.786449 0.997830 -1.004542
v -0.790116 0.000236 -0.879457
v -0.790151 3.132189 0.621542
v -0.790133 0.997830 -0.879457
v 0.786449 0.000236 -0.879458
v -0.790133 0.997830 0.871709
v 0.786449 0.997830 0.871708
v 0.786449 3.265191 0.496458
v 0.786449 3.265191 -0.504208
v -0.790151 2.999188 -0.754375
v 0.786449 3.398192 0.246292
v -0.790151 2.999188 0.746625
v 0.786449 3.398192 -0.254042
v -0.790151 3.398192 -0.254042
v 0.786449 2.999188 0.746625
v -0.790151 3.398192 0.246292
v 0.786449 2.999188 -0.754375
v -0.790115 0.000236 0.871710
v 0.786449 0.000236 0.871708
v -0.790151 3.265191 -0.504208
v 0.786449 0.997830 -0.879458
v -0.790151 3.265191 0.496458
v 0.786449 3.132189 0.621542
v 0.786449 3.132189 -0.629292
v 0.786449 3.464693 -0.003875
v 0.786449 2.799052 0.871708
v 0.786449 2.799052 -0.879458
v -0.790151 3.132189 -0.629292
v -0.790151 3.464693 -0.003875
v -0.790150 2.799052 0.871708
v -0.790151 2.799052 -0.879458
v -0.000041 3.830683 0.181388
v -0.000041 4.035422 0.181388
v 0.519574 3.830683 0.481388
v 0.519574 4.035422 0.481388
v 0.519574 3.830683 1.081388
v 0.519574 4.035422 1.081388
v -0.000041 3.830683 1.381388
v -0.000041 4.035422 1.381388
v -0.519656 3.830683 1.081388
v -0.519656 4.035422 1.081388
v -0.519656 3.830683 0.481388
v -0.519656 4.035422 0.481388
v -0.000041 3.830683 -1.396612
v -0.000041 4.035422 -1.396612
v 0.519574 3.830683 -1.096612
v 0.519574 4.035422 -1.096612
v 0.519574 3.830683 -0.496612
v 0.519574 4.035422 -0.496612
v -0.000041 3.830683 -0.196612
v -0.000041 4.035422 -0.196612
v -0.519656 3.830683 -0.496612
v -0.519656 4.035422 -0.496612
v -0.519656 3.830683 -1.096612
v -0.519656 4.035422 -1.096612
v -0.000041 4.035422 -0.796612
v -0.000041 4.035422 0.781388
vt 0.520018 0.727535
vt 0.560052 0.747552
vt 0.625000 0.812500
vt 0.541667 0.770833
vt 0.541667 0.812500
vt 0.625000 0.875000
vt 0.541667 0.875000
vt 0.541667 0.062500
vt 0.625000 0.062500
vt 0.625000 0.125000
vt 0.541667 0.125000
vt 0.458333 0.875000
vt 0.479983 0.766754
vt 0.439948 0.810052
vt 0.375000 0.875000
vt 0.125000 0.562500
vt 0.189948 0.562500
vt 0.189948 0.625000
vt 0.125000 0.625000
vt 0.375000 0.625000
vt 0.439948 0.625000
vt 0.439948 0.687500
vt 0.375000 0.687500
vt 0.480928 0.649357
vt 0.442785 0.630285
vt 0.557215 0.687500
vt 0.519072 0.668428
vt 0.479983 0.707517
vt 0.483312 0.650549
vt 0.517515 0.726284
vt 0.560052 0.680157
vt 0.520018 0.723456
vt 0.463542 0.875000
vt 0.482485 0.764048
vt 0.375000 0.062500
vt 0.458333 0.062500
vt 0.458333 0.125000
vt 0.375000 0.125000
vt 0.375000 0.812500
vt 0.458333 0.812500
vt 0.536458 0.812500
vt 0.536458 0.875000
vt 0.458333 0.729167
vt 0.536458 0.768229
vt 0.480928 0.449833
vt 0.482439 0.643597
vt 0.483312 0.650549
vt 0.000000 0.000000
vt 0.483562 0.639829
vt 0.485406 0.636422
vt 0.491982 0.635380
vt 0.500000 0.637225
vt 0.519072 0.571309
vt 0.508018 0.643399
vt 0.514594 0.651016
vt 0.518242 0.652840
vt 0.514594 0.651016
vt 0.516438 0.656267
vt 0.491982 0.635380
vt 0.483963 0.631371
vt 0.485406 0.636422
vt 0.508379 0.641414
vt 0.500000 0.637225
vt 0.508018 0.643399
vt 0.484987 0.710020
vt 0.482485 0.708768
vt 0.482485 0.708768
vt 0.484987 0.710020
vt 0.491621 0.633035
vt 0.516688 0.667236
vt 0.517561 0.661158
vt 0.517561 0.661158
vt 0.516688 0.667236
vt 0.500000 0.062500
vt 0.510417 0.062500
vt 0.510417 0.125000
vt 0.500000 0.125000
vt 0.516438 0.656267
vt 0.516037 0.647408
vt 0.515013 0.728868
vt 0.531250 0.875000
vt 0.517515 0.726284
vt 0.482439 0.643597
vt 0.463542 0.731771
vt 0.517515 0.726162
vt 0.531250 0.765625
vt 0.531250 0.812500
vt 0.463542 0.812500
vt 0.468750 0.875000
vt 0.484987 0.761342
vt 0.483562 0.639829
vt 0.519726 0.657911
vt 0.508740 0.639430
vt 0.500000 0.635060
vt 0.481758 0.634598
vt 0.480274 0.638186
vt 0.520488 0.662622
vt 0.557215 0.625000
vt 0.307215 0.562500
vt 0.307215 0.625000
vt 0.557215 0.692785
vt 0.442785 0.328356
vt 0.479512 0.642134
vt 1.000000 0.500000
vt 1.000000 1.000000
vt 0.833333 1.000000
vt 0.833333 0.500000
vt 0.666667 1.000000
vt 0.666667 0.500000
vt 0.500000 1.000000
vt 0.500000 0.500000
vt 0.333333 1.000000
vt 0.333333 0.500000
vt 0.500000 1.000000
vt 0.166667 1.000000
vt 0.166667 0.500000
vt -0.000000 1.000000
vt -0.000000 0.500000
vt 1.000000 0.500000
vt 1.000000 1.000000
vt 0.833333 1.000000
vt 0.833333 0.500000
vt 0.666667 1.000000
vt 0.666667 0.500000
vt 0.500000 1.000000
vt 0.500000 0.500000
vt 0.333333 1.000000
vt 0.333333 0.500000
vt 0.166667 1.000000
vt 0.166667 1.000000
vt 0.166667 0.500000
vt -0.000000 1.000000
vt -0.000000 0.500000
vt -0.000000 1.000000
vt -0.000000 1.000000
vt 0.333333 1.000000
vt 0.666667 1.000000
vt 0.166667 1.000000
vt 0.833333 1.000000
vt 0.500000 1.000000
vt 0.833333 1.000000
vt 0.333333 1.000000
vt 0.666667 1.000000
vn 1.0000 0.0000 -0.0000
vn -0.0000 -1.0000 -0.0000
vn 0.0000 1.0000 0.0000
vn -1.0000 0.0000 0.0000
vn 0.0000 0.0000 1.0000
vn -0.0000 0.0000 -1.0000
vn -1.0000 -0.0000 -0.0001
vn -1.0000 0.0001 0.0000
vn 0.0000 -0.8830 -0.4694
vn -0.0000 -0.8830 0.4694
vn 0.0000 -0.9664 0.2569
vn 0.0000 -0.5300 0.8480
vn -0.0000 -0.6851 0.7285
vn 0.0000 -0.5300 -0.8480
vn -1.0000 -0.0000 0.0001
vn 0.0000 -0.9664 -0.2569
vn 0.0000 -0.6851 -0.7285
vn -1.0000 -0.0000 -0.0002
vn -1.0000 -0.0000 0.0002
vn 0.5000 0.0000 -0.8660
vn 0.5000 0.0000 0.8660
vn -0.5000 0.0000 0.8660
vn -0.5000 0.0000 -0.8660
usemtl red.008
s off
f 23/1/1 11/2/1 6/3/1 19/4/1
f 19/5/2 6/3/2 4/6/2 13/7/2
f 17/8/3 5/9/3 3/10/3 15/11/3
f 14/12/4 22/13/4 10/14/4 1/15/4
f 6/16/5 11/17/5 9/18/5 4/19/5
f 1/20/6 10/21/6 12/22/6 7/23/6
f 18/24/1 8/25/1 11/2/1 23/1/1
f 5/26/1 17/27/1 24/28/1 12/22/1
f 49/29/1 18/24/1 23/1/1 30/30/1
f 4/6/4 9/31/4 21/32/4 13/7/4
f 25/33/7 27/34/7 22/13/7 14/12/7
f 8/35/3 18/36/3 16/37/3 2/38/3
f 7/39/2 20/40/2 14/12/2 1/15/2
f 42/41/2 19/5/2 13/7/2 41/42/2
f 12/22/1 24/28/1 20/43/1 7/23/1
f 30/30/1 23/1/1 19/4/1 42/44/1
f 16/45/4 35/46/4 53/47/4
f 35/46/4 16/48/4 26/49/4
f 26/49/4 16/48/4 45/50/4
f 16/48/4 39/51/4 45/50/4
f 39/51/8 16/48/8 52/52/8
f 52/52/8 15/53/8 37/54/8
f 37/54/4 15/53/4 43/55/4
f 17/56/1 32/57/1 47/58/1
f 34/59/1 18/60/1 31/61/1
f 17/62/1 48/63/1 36/64/1
f 34/59/9 31/61/9 45/50/9 39/51/9
f 32/57/10 36/64/10 37/54/10 43/55/10
f 36/64/11 48/63/11 52/52/11 37/54/11
f 30/65/3 44/66/3 27/67/3 29/68/3
f 48/63/1 18/69/1 34/59/1
f 50/70/12 40/71/12 33/72/12 54/73/12
f 18/74/3 17/75/3 15/76/3 16/77/3
f 47/58/13 32/57/13 43/55/13 51/78/13
f 17/79/1 36/64/1 32/57/1
f 41/42/4 29/80/4 25/81/4
f 49/29/6 30/30/6 29/82/6 53/47/6
f 38/83/14 49/29/14 53/47/14 35/46/14
f 44/66/1 30/65/1 28/84/1
f 40/71/13 47/58/13 51/78/13 33/72/13
f 13/7/15 21/32/15 29/85/15 41/42/15
f 30/30/1 42/44/1 28/86/1
f 28/87/2 42/41/2 41/42/2 25/81/2
f 24/28/1 44/66/1 28/84/1 20/43/1
f 20/40/2 28/88/2 25/33/2 14/12/2
f 17/27/1 50/70/1 44/66/1 24/28/1
f 25/89/4 29/90/4 27/34/4
f 48/63/16 34/59/16 39/51/16 52/52/16
f 46/91/17 38/83/17 35/46/17 26/49/17
f 44/66/5 50/70/5 54/73/5 27/67/5
f 16/77/8 15/76/8 52/52/8
f 31/61/17 46/91/17 26/49/17 45/50/17
f 17/92/1 47/58/1 40/71/1
f 17/93/1 18/94/1 48/63/1
f 15/53/4 51/78/4 43/55/4
f 15/53/4 33/72/4 51/78/4
f 46/91/1 31/61/1 18/95/1
f 38/83/1 46/91/1 18/96/1
f 15/53/18 22/13/18 27/34/18 54/73/18
f 17/97/1 40/71/1 50/70/1
f 10/21/6 3/98/6 5/26/6 12/22/6
f 11/17/5 8/99/5 2/100/5 9/18/5
f 22/13/4 15/53/4 3/101/4 10/14/4
f 9/31/4 2/102/4 16/45/4 21/32/4
f 29/85/19 21/32/19 16/45/19 53/47/19
f 49/29/1 38/83/1 18/103/1
f 54/73/4 33/72/4 15/53/4
f 55/104/20 56/105/20 58/106/20 57/107/20
f 57/107/1 58/106/1 60/108/1 59/109/1
f 59/109/21 60/108/21 62/110/21 61/111/21
f 61/111/22 62/110/22 64/112/22 63/113/22
f 62/110/3 60/108/3 80/114/3
f 63/113/4 64/112/4 66/115/4 65/116/4
f 65/116/23 66/115/23 56/117/23 55/118/23
f 67/119/20 68/120/20 70/121/20 69/122/20
f 69/122/1 70/121/1 72/123/1 71/124/1
f 71/124/21 72/123/21 74/125/21 73/126/21
f 73/126/22 74/125/22 76/127/22 75/128/22
f 78/129/3 76/127/3 79/130/3
f 75/128/4 76/127/4 78/129/4 77/131/4
f 77/131/23 78/129/23 68/132/23 67/133/23
f 68/132/3 78/129/3 79/134/3
f 56/117/3 66/115/3 80/135/3
f 64/112/3 62/110/3 80/136/3
f 60/108/3 58/106/3 80/137/3
f 66/115/3 64/112/3 80/138/3
f 58/106/3 56/105/3 80/139/3
f 74/125/3 72/123/3 79/140/3
f 70/121/3 68/120/3 79/141/3
f 76/127/3 74/125/3 79/142/3
f 72/123/3 70/121/3 79/143/3
