# Blender v2.80 (sub 75) OBJ File: 'gate.blend'
# www.blender.org
mtllib 2x2.mtl
o Cube.126_Cube.411
v -1.580600 1.919601 1.580123
v -1.580600 -0.000399 1.580123
v 1.579400 1.919601 1.580122
v 1.579400 -0.000399 1.580122
v 1.579399 -0.000399 -1.573008
v -1.580601 1.919601 -1.573007
v 1.579399 1.919601 -1.573008
v -0.819333 1.910682 0.196126
v -0.819333 2.115422 0.196126
v -0.299717 1.910682 0.496126
v -0.299717 2.115422 0.496126
v -0.299717 1.910682 1.096126
v -0.299717 2.115422 1.096126
v -0.819333 1.910682 1.396126
v -0.819333 2.115422 1.396126
v -1.338948 1.910682 1.096126
v -1.338948 2.115422 1.096126
v -1.338948 1.910682 0.496126
v -1.338948 2.115422 0.496126
v 0.787318 1.910682 0.196126
v 0.787318 2.115422 0.196126
v 1.306933 1.910682 0.496126
v 1.306933 2.115422 0.496126
v 1.306933 1.910682 1.096126
v 1.306933 2.115422 1.096126
v 0.787318 1.910682 1.396126
v 0.787318 2.115422 1.396126
v 0.267703 1.910682 1.096126
v 0.267703 2.115422 1.096126
v 0.267703 1.910682 0.496126
v 0.267703 2.115422 0.496126
v -0.819333 1.910682 -1.381874
v -0.819333 2.115422 -1.381874
v -0.299717 1.910682 -1.081874
v -0.299717 2.115422 -1.081874
v -0.299717 1.910682 -0.481874
v -0.299717 2.115422 -0.481874
v -0.819333 1.910682 -0.181874
v -0.819333 2.115422 -0.181874
v -1.338948 1.910682 -0.481874
v -1.338948 2.115422 -0.481874
v -1.338948 1.910682 -1.081874
v -1.338948 2.115422 -1.081874
v 0.787318 1.910682 -1.381874
v 0.787318 2.115422 -1.381874
v 1.306933 1.910682 -1.081874
v 1.306933 2.115422 -1.081874
v 1.306933 1.910682 -0.481874
v 1.306933 2.115422 -0.481874
v 0.787318 1.910682 -0.181874
v 0.787318 2.115422 -0.181874
v 0.267702 1.910682 -0.481874
v 0.267702 2.115422 -0.481874
v 0.267702 1.910682 -1.081874
v 0.267702 2.115422 -1.081874
v -1.580601 -0.000337 -1.573007
v -0.819333 2.115422 -0.781874
v 0.787318 2.115422 -0.781874
v 0.787318 2.115422 0.796126
v -0.819333 2.115422 0.796126
vt 0.375000 0.625000
vt 0.625000 0.625000
vt 0.625000 0.750000
vt 0.375000 0.750000
vt 0.625000 0.500000
vt 0.875000 0.500000
vt 0.875000 0.750000
vt 0.625000 0.750000
vt 0.375000 0.000000
vt 0.625000 0.000000
vt 0.625000 0.125000
vt 0.375000 0.125000
vt 1.000000 0.500000
vt 1.000000 1.000000
vt 0.833333 1.000000
vt 0.833333 0.500000
vt 0.666667 1.000000
vt 0.666667 0.500000
vt 0.500000 1.000000
vt 0.500000 0.500000
vt 0.333333 1.000000
vt 0.333333 0.500000
vt 0.333333 1.000000
vt 0.166667 1.000000
vt 0.166667 0.500000
vt -0.000000 1.000000
vt -0.000000 0.500000
vt 1.000000 0.500000
vt 1.000000 1.000000
vt 0.833333 1.000000
vt 0.833333 0.500000
vt 0.666667 1.000000
vt 0.666667 0.500000
vt 0.500000 1.000000
vt 0.500000 0.500000
vt 0.333333 1.000000
vt 0.333333 0.500000
vt 0.500000 1.000000
vt 0.166667 1.000000
vt 0.166667 0.500000
vt -0.000000 1.000000
vt -0.000000 0.500000
vt 1.000000 0.500000
vt 1.000000 1.000000
vt 0.833333 1.000000
vt 0.833333 0.500000
vt 0.666667 1.000000
vt 0.666667 0.500000
vt 0.500000 1.000000
vt 0.500000 0.500000
vt 0.333333 1.000000
vt 0.333333 0.500000
vt 0.833333 1.000000
vt 0.166667 1.000000
vt 0.166667 0.500000
vt -0.000000 1.000000
vt -0.000000 0.500000
vt 1.000000 0.500000
vt 1.000000 1.000000
vt 0.833333 1.000000
vt 0.833333 0.500000
vt 0.666667 1.000000
vt 0.666667 0.500000
vt 0.500000 1.000000
vt 0.500000 0.500000
vt 0.333333 1.000000
vt 0.333333 0.500000
vt 0.666667 1.000000
vt 0.166667 1.000000
vt 0.166667 0.500000
vt -0.000000 1.000000
vt -0.000000 0.500000
vt 0.000000 0.000000
vt 0.333333 1.000000
vt 0.666667 1.000000
vt 0.166667 1.000000
vt 0.833333 1.000000
vt 0.500000 1.000000
vt -0.000000 1.000000
vt -0.000000 1.000000
vt 0.500000 1.000000
vt 0.500000 1.000000
vt 0.666667 1.000000
vt 0.166667 1.000000
vt 0.833333 1.000000
vt 0.166667 1.000000
vt 0.666667 1.000000
vt -0.000000 1.000000
vt 0.333333 1.000000
vt 0.333333 1.000000
vt -0.000000 1.000000
vt 0.166667 1.000000
vt 0.833333 1.000000
vn 1.0000 0.0000 -0.0000
vn 0.0000 0.0000 1.0000
vn 0.0000 1.0000 0.0000
vn 0.5000 0.0000 -0.8660
vn 0.5000 0.0000 0.8660
vn -0.5000 0.0000 0.8660
vn -1.0000 0.0000 0.0000
vn -0.5000 0.0000 -0.8660
vn -0.0000 0.0000 -1.0000
vn -0.0000 -1.0000 -0.0000
usemtl red.008
s off
f 5/1/1 7/2/1 3/3/1 4/4/1
f 4/5/2 3/6/2 1/7/2 2/8/2
f 1/9/3 3/10/3 7/11/3 6/12/3
f 8/13/4 9/14/4 11/15/4 10/16/4
f 10/16/1 11/15/1 13/17/1 12/18/1
f 12/18/5 13/17/5 15/19/5 14/20/5
f 14/20/6 15/19/6 17/21/6 16/22/6
f 17/21/3 15/19/3 60/23/3
f 16/22/7 17/21/7 19/24/7 18/25/7
f 18/25/8 19/24/8 9/26/8 8/27/8
f 20/28/4 21/29/4 23/30/4 22/31/4
f 22/31/1 23/30/1 25/32/1 24/33/1
f 24/33/5 25/32/5 27/34/5 26/35/5
f 26/35/6 27/34/6 29/36/6 28/37/6
f 27/34/3 25/32/3 59/38/3
f 28/37/7 29/36/7 31/39/7 30/40/7
f 30/40/8 31/39/8 21/41/8 20/42/8
f 32/43/4 33/44/4 35/45/4 34/46/4
f 34/46/1 35/45/1 37/47/1 36/48/1
f 36/48/5 37/47/5 39/49/5 38/50/5
f 38/50/6 39/49/6 41/51/6 40/52/6
f 35/45/3 33/44/3 57/53/3
f 40/52/7 41/51/7 43/54/7 42/55/7
f 42/55/8 43/54/8 33/56/8 32/57/8
f 44/58/4 45/59/4 47/60/4 46/61/4
f 46/61/1 47/60/1 49/62/1 48/63/1
f 48/63/5 49/62/5 51/64/5 50/65/5
f 50/65/6 51/64/6 53/66/6 52/67/6
f 49/62/3 47/60/3 58/68/3
f 52/67/7 53/66/7 55/69/7 54/70/7
f 54/70/8 55/69/8 45/71/8 44/72/8
f 5/1/9 56/73/9 6/12/9 7/2/9
f 2/8/7 1/9/7 6/12/7 56/73/7
f 2/8/10 56/73/10 5/1/10 4/4/10
f 41/51/3 39/49/3 57/74/3
f 13/17/3 11/15/3 60/75/3
f 19/24/3 17/21/3 60/76/3
f 11/15/3 9/14/3 60/77/3
f 15/19/3 13/17/3 60/78/3
f 9/26/3 19/24/3 60/79/3
f 33/56/3 43/54/3 57/80/3
f 39/49/3 37/47/3 57/81/3
f 51/64/3 49/62/3 58/82/3
f 37/47/3 35/45/3 57/83/3
f 43/54/3 41/51/3 57/84/3
f 47/60/3 45/59/3 58/85/3
f 55/69/3 53/66/3 58/86/3
f 25/32/3 23/30/3 59/87/3
f 45/71/3 55/69/3 58/88/3
f 53/66/3 51/64/3 58/89/3
f 29/36/3 27/34/3 59/90/3
f 21/41/3 31/39/3 59/91/3
f 31/39/3 29/36/3 59/92/3
f 23/30/3 21/29/3 59/93/3
