# Blender v2.80 (sub 75) OBJ File: 'gate.blend'
# www.blender.org
mtllib 2x2_slope.mtl
o Cube.122_Cube.407
v 2.407642 -0.000399 -1.580065
v -0.752358 1.919601 -1.580064
v 0.827641 1.919601 -1.580064
v -0.752358 -0.000399 -1.580064
v 0.827642 1.919601 1.576607
v -0.752358 -0.000399 1.576608
v 2.407642 -0.000399 1.576607
v -0.752358 1.919601 1.576608
v -0.752358 0.200744 -1.580064
v 2.407642 0.200744 -1.580065
v -0.752358 0.200744 1.576608
v 2.407642 0.200744 1.576607
v 0.000667 1.910682 0.186126
v 0.000667 2.115422 0.186126
v 0.520282 1.910682 0.486126
v 0.520282 2.115422 0.486126
v 0.520282 1.910682 1.086126
v 0.520282 2.115422 1.086126
v 0.000667 1.910682 1.386126
v 0.000667 2.115422 1.386126
v -0.518948 1.910682 1.086126
v -0.518948 2.115422 1.086126
v -0.518948 1.910682 0.486126
v -0.518948 2.115422 0.486126
v 0.000667 1.910682 -1.391874
v 0.000667 2.115422 -1.391874
v 0.520282 1.910682 -1.091874
v 0.520282 2.115422 -1.091874
v 0.520282 1.910682 -0.491874
v 0.520282 2.115422 -0.491874
v 0.000667 1.910682 -0.191874
v 0.000667 2.115422 -0.191874
v -0.518948 1.910682 -0.491874
v -0.518948 2.115422 -0.491874
v -0.518948 1.910682 -1.091874
v -0.518948 2.115422 -1.091874
v 0.000667 2.115422 -0.791874
v 0.000667 2.115422 0.786126
vt 0.151190 0.562500
vt 0.375000 0.562500
vt 0.375000 0.625000
vt 0.151190 0.625000
vt 0.401190 0.625000
vt 0.625000 0.625000
vt 0.625000 0.687500
vt 0.401190 0.687500
vt 0.375000 0.625000
vt 0.375000 0.687500
vt 0.125000 0.562500
vt 0.125000 0.625000
vt 0.500000 0.625000
vt 0.500000 0.736905
vt 0.375000 0.062500
vt 0.500000 0.062500
vt 0.500000 0.125000
vt 0.375000 0.125000
vt 0.404985 0.689397
vt 0.496048 0.734929
vt 0.495000 0.747500
vt 0.379800 0.689900
vt 0.379800 0.812500
vt 0.495000 0.812500
vt 0.495000 0.875000
vt 0.379800 0.875000
vt 0.505000 0.627500
vt 0.598810 0.796429
vt 0.500000 0.375000
vt 0.496048 0.823667
vt 0.404985 0.847804
vt 0.620200 0.615400
vt 1.000000 0.500000
vt 1.000000 1.000000
vt 0.833333 1.000000
vt 0.833333 0.500000
vt 0.666667 1.000000
vt 0.666667 0.500000
vt 0.500000 1.000000
vt 0.500000 0.500000
vt 0.333333 1.000000
vt 0.333333 0.500000
vt 0.333333 1.000000
vt 0.166667 1.000000
vt 0.166667 0.500000
vt -0.000000 1.000000
vt -0.000000 0.500000
vt 1.000000 0.500000
vt 1.000000 1.000000
vt 0.833333 1.000000
vt 0.833333 0.500000
vt 0.666667 1.000000
vt 0.666667 0.500000
vt 0.500000 1.000000
vt 0.500000 0.500000
vt 0.333333 1.000000
vt 0.333333 0.500000
vt -0.000000 1.000000
vt 0.166667 1.000000
vt -0.000000 1.000000
vt 0.166667 0.500000
vt -0.000000 0.500000
vt 0.166667 1.000000
vt 0.666667 1.000000
vt 0.166667 1.000000
vt 0.833333 1.000000
vt 0.500000 1.000000
vt -0.000000 1.000000
vt 0.666667 1.000000
vt 0.333333 1.000000
vt 0.833333 1.000000
vt 0.500000 1.000000
vn -1.0000 0.0000 0.0000
vn 0.7362 0.6767 -0.0000
vn 1.0000 0.0000 -0.0000
vn 0.0000 0.0000 1.0000
vn 0.0000 1.0000 0.0000
vn 0.0000 -1.0000 0.0000
vn -0.0000 0.0000 -1.0000
vn 0.5000 0.0000 -0.8660
vn 0.5000 0.0000 0.8660
vn -0.5000 0.0000 0.8660
vn -0.5000 0.0000 -0.8660
usemtl red.008
s off
f 11/1/1 8/2/1 2/3/1 9/4/1
f 10/5/2 3/6/2 5/7/2 12/8/2
f 1/9/3 10/5/3 12/8/3 7/10/3
f 6/11/1 11/1/1 9/4/1 4/12/1
f 5/13/4 8/2/4 11/14/4
f 8/15/5 5/16/5 3/17/5 2/18/5
f 12/19/4 11/20/4 6/21/4 7/22/4
f 7/23/6 6/24/6 4/25/6 1/26/6
f 5/27/4 11/20/4 12/19/4
f 9/28/7 2/18/7 3/29/7
f 4/25/7 9/30/7 10/31/7 1/26/7
f 9/30/7 3/32/7 10/31/7
f 13/33/8 14/34/8 16/35/8 15/36/8
f 15/36/3 16/35/3 18/37/3 17/38/3
f 17/38/9 18/37/9 20/39/9 19/40/9
f 19/40/10 20/39/10 22/41/10 21/42/10
f 22/41/5 20/39/5 38/43/5
f 21/42/1 22/41/1 24/44/1 23/45/1
f 23/45/11 24/44/11 14/46/11 13/47/11
f 25/48/8 26/49/8 28/50/8 27/51/8
f 27/51/3 28/50/3 30/52/3 29/53/3
f 29/53/9 30/52/9 32/54/9 31/55/9
f 31/55/10 32/54/10 34/56/10 33/57/10
f 26/58/5 36/59/5 37/60/5
f 33/57/1 34/56/1 36/59/1 35/61/1
f 35/61/11 36/59/11 26/58/11 25/62/11
f 36/59/5 34/56/5 37/63/5
f 18/37/5 16/35/5 38/64/5
f 24/44/5 22/41/5 38/65/5
f 16/35/5 14/34/5 38/66/5
f 20/39/5 18/37/5 38/67/5
f 14/46/5 24/44/5 38/68/5
f 30/52/5 28/50/5 37/69/5
f 34/56/5 32/54/5 37/70/5
f 28/50/5 26/49/5 37/71/5
f 32/54/5 30/52/5 37/72/5
