# Blender v2.80 (sub 75) OBJ File: ''
# www.blender.org
mtllib 2x2_cornered_slope.mtl
o Cube.126_Cube.000
v -1.381874 1.910682 0.819333
v -1.381874 2.115422 0.819333
v -1.081874 2.115422 0.299717
v -1.081874 1.910682 0.299717
v -0.481874 2.115422 0.299717
v -0.481874 1.910682 0.299717
v -0.181874 2.115422 0.819333
v -0.181874 1.910682 0.819333
v -0.481874 2.115422 1.338948
v -0.481874 1.910682 1.338948
v -0.781874 2.115422 0.819333
v -1.081874 2.115422 1.338948
v -1.081874 1.910682 1.338948
v -1.573007 0.201229 0.000601
v -1.573007 0.201257 1.580601
v -1.573007 1.919601 1.580601
v -1.573007 1.919601 0.000601
v 0.003558 0.201229 1.580601
v 0.003558 1.919601 1.580601
v 0.003558 -0.000384 0.000601
v -0.070100 -0.000383 0.000601
v 0.003557 -0.000384 -0.070255
v 1.580122 -0.000399 0.000600
v 0.003557 -0.000399 -1.579399
v 1.580122 -0.000399 -1.579400
v 1.580123 -0.000399 1.580600
v 0.003558 -0.000368 1.580601
v -1.573007 -0.000337 1.580601
v -1.573007 -0.000368 0.000601
v 1.580123 0.201201 1.580600
v 0.003558 1.919601 0.000600
v -1.573008 -0.000399 -1.579399
v -1.573008 0.201201 -1.579399
v 0.003557 0.201201 -1.579399
v 1.580122 0.201201 -1.579400
v 1.580122 0.201201 0.000600
vt 1.000000 0.500000
vt 1.000000 1.000000
vt 0.833333 1.000000
vt 0.833333 0.500000
vt 0.666667 1.000000
vt 0.666667 0.500000
vt 0.500000 1.000000
vt 0.500000 0.500000
vt 0.333333 1.000000
vt 0.333333 0.500000
vt 0.833333 1.000000
vt 0.166667 1.000000
vt 0.166667 0.500000
vt -0.000000 1.000000
vt -0.000000 0.500000
vt 0.220313 0.319062
vt 0.039375 0.013125
vt 0.375000 0.125000
vt 0.500000 0.375000
vt 0.319062 0.342188
vt 0.375000 0.062500
vt 0.343750 0.531250
vt 0.336450 0.521030
vt 0.345151 0.538257
vt 0.333333 1.000000
vt -0.000000 1.000000
vt 0.500000 1.000000
vt 0.666667 1.000000
vt 0.166667 1.000000
vt 0.500000 0.750000
vt 0.375000 0.687500
vt 0.375000 0.750000
vt 0.625000 0.750000
vt 0.312500 0.375000
vt 0.000000 0.000000
vt 0.187500 0.312500
vt 0.598750 0.671250
vt 0.500000 0.062500
vt 0.500000 0.125000
vt 0.375000 0.625000
vt 0.401250 0.625000
vt 0.401250 0.687500
vt 0.625000 0.500000
vt 0.651250 0.500000
vt 0.651250 0.625000
vt 0.625000 0.625000
vt 0.651250 0.750000
vt 0.401250 0.750000
vn -0.8660 0.0000 -0.5000
vn 0.0000 -0.0000 -1.0000
vn 0.8660 -0.0000 -0.5000
vn 0.8660 -0.0000 0.5000
vn 0.0000 1.0000 0.0000
vn -0.0000 0.0000 1.0000
vn -0.8660 0.0000 0.5000
vn -1.0000 0.0000 -0.0000
vn -0.0000 -1.0000 0.0000
vn 1.0000 0.0000 0.0000
vn 0.7369 0.6760 0.0000
vn -0.0000 0.6768 -0.7361
usemtl red.002
s off
f 1/1/1 2/2/1 3/3/1 4/4/1
f 4/4/2 3/3/2 5/5/2 6/6/2
f 6/6/3 5/5/3 7/7/3 8/8/3
f 8/8/4 7/7/4 9/9/4 10/10/4
f 3/3/5 2/2/5 11/11/5
f 10/10/6 9/9/6 12/12/6 13/13/6
f 13/13/7 12/12/7 2/14/7 1/15/7
f 14/16/8 15/17/8 16/18/8 17/19/8
f 18/20/6 19/21/6 16/18/6 15/17/6
f 20/22/9 21/23/9 22/24/9
f 9/9/5 7/7/5 11/25/5
f 2/14/5 12/12/5 11/26/5
f 7/7/5 5/5/5 11/27/5
f 5/5/5 3/3/5 11/28/5
f 12/12/5 9/9/5 11/29/5
f 23/30/9 20/22/9 22/24/9 24/31/9 25/32/9
f 26/33/9 27/34/9 20/22/9 23/30/9
f 27/34/9 28/35/9 29/36/9 21/23/9 20/22/9
f 30/37/6 19/21/6 18/20/6
f 19/21/5 31/38/5 17/39/5 16/18/5
f 32/40/2 33/41/2 34/42/2 24/31/2
f 25/43/10 35/44/10 36/45/10 23/46/10
f 32/40/8 29/36/8 14/16/8 33/41/8
f 26/33/6 30/37/6 18/20/6 27/34/6
f 27/34/6 18/20/6 15/17/6 28/35/6
f 29/36/8 28/35/8 15/17/8 14/16/8
f 23/46/10 36/45/10 30/47/10 26/33/10
f 24/31/2 34/42/2 35/48/2 25/32/2
f 17/19/8 33/41/8 14/16/8
f 22/24/9 21/23/9 29/36/9 32/40/9 24/31/9
f 19/21/11 36/45/11 35/44/11 31/38/11
f 35/44/12 34/42/12 17/19/12 31/38/12
f 36/45/11 19/21/11 30/37/11
f 17/19/12 34/42/12 33/41/12
