# Blender v2.80 (sub 75) OBJ File: 'gate.blend'
# www.blender.org
mtllib 3x1_arch.mtl
o Cube.118_Cube.403
v 0.794414 0.000000 -0.790754
v 0.794414 3.840000 -0.790652
v 0.794414 3.840000 0.785810
v 0.794414 0.000000 0.785810
v -0.785586 3.840000 -0.790652
v -0.785586 3.840000 0.785811
v -0.785586 0.000000 0.785811
v 0.794414 3.840000 -1.578832
v 0.794414 3.840000 -2.367020
v 0.794414 3.094591 -2.367020
v 0.794414 2.382512 -1.578832
v 0.794414 3.840000 -1.972973
v 0.794414 2.821250 -1.972973
v 0.794413 3.840000 -3.943491
v 0.794414 3.840000 -3.155209
v 0.794058 3.437545 -3.943544
v 0.794414 3.366763 -3.155209
v -0.785586 0.000000 -0.790549
v -0.785587 2.821250 -1.972973
v -0.785587 3.840000 -1.578832
v -0.785587 3.840000 -1.972973
v -0.785587 3.094591 -2.367020
v -0.785587 2.382512 -1.578832
v -0.785587 3.840000 -2.367020
v -0.785587 3.840000 -3.943491
v -0.785587 3.840000 -3.155208
v -0.785587 3.437480 -3.943491
v -0.785587 3.366763 -3.155208
v -0.785586 1.740909 -1.184690
v 0.794414 1.740909 -1.184793
v -0.785586 1.215448 -0.962374
v 0.794414 1.215448 -0.962507
v 0.000667 3.830683 -0.593874
v 0.000667 4.035422 -0.593874
v 0.520283 3.830683 -0.293874
v 0.520283 4.035422 -0.293874
v 0.520283 3.830683 0.306126
v 0.520283 4.035422 0.306126
v 0.000667 3.830683 0.606126
v 0.000667 4.035422 0.606126
v -0.518948 3.830683 0.306126
v -0.518948 4.035422 0.306126
v -0.518948 3.830683 -0.293874
v -0.518948 4.035422 -0.293874
v 0.000667 3.830683 -2.171875
v 0.000667 4.035422 -2.171875
v 0.520283 3.830683 -1.871874
v 0.520283 4.035422 -1.871874
v 0.520283 3.830683 -1.271874
v 0.520283 4.035422 -1.271874
v 0.000667 3.830683 -0.971874
v 0.000667 4.035422 -0.971874
v -0.518948 3.830683 -1.271874
v -0.518948 4.035422 -1.271874
v -0.518948 3.830683 -1.871874
v -0.518948 4.035422 -1.871874
v 0.000667 3.830683 -3.749874
v 0.000667 4.035422 -3.749874
v 0.520283 3.830683 -3.449875
v 0.520283 4.035422 -3.449875
v 0.520283 3.830683 -2.849874
v 0.520283 4.035422 -2.849874
v 0.000667 3.830683 -2.549875
v 0.000667 4.035422 -2.549875
v -0.518948 3.830683 -2.849874
v -0.518948 4.035422 -2.849874
v -0.518948 3.830683 -3.449874
v -0.518948 4.035422 -3.449874
v 0.000667 4.035421 -1.571874
v 0.000667 4.035421 -3.149874
v 0.000667 4.035421 0.006126
vt 0.500000 0.062500
vt 0.625000 0.062500
vt 0.625000 0.125000
vt 0.500000 0.125000
vt 0.375000 0.812500
vt 0.500000 0.812500
vt 0.500000 0.875000
vt 0.375000 0.875000
vt 0.625000 0.687500
vt 0.500000 0.625000
vt 0.500000 0.750000
vt 0.375000 0.687500
vt 0.000000 0.000000
vt 0.000000 0.000000
vt 0.000000 0.000000
vt 0.000000 0.000000
vt 0.000000 0.000000
vt 0.000000 0.000000
vt 0.000000 0.000000
vt 0.000000 0.000000
vt 0.625000 0.125000
vt 0.625000 0.125000
vt 0.625000 0.093750
vt 0.625000 0.093750
vt 0.000000 0.000000
vt 0.000000 0.000000
vt 0.593750 0.656250
vt 0.593750 0.625000
vt 0.625000 0.625000
vt 0.000000 0.000000
vt 0.000000 0.000000
vt 0.625000 0.093750
vt 0.625000 0.093750
vt 0.625000 0.078125
vt 0.625000 0.062500
vt 0.000000 0.000000
vt 0.000000 0.000000
vt 0.000000 0.000000
vt 0.625000 0.109375
vt 0.625000 0.109375
vt 0.562500 0.687500
vt 0.562500 0.656250
vt 0.531250 0.656250
vt 0.562500 0.640625
vt 0.578125 0.640625
vt 0.578125 0.625000
vt 0.593750 0.625000
vt 0.500000 0.687500
vt 0.531250 0.687500
vt 0.510909 0.676591
vt 0.593750 0.656250
vt 0.593750 0.687500
vt 0.625000 0.687500
vt 0.625000 0.656250
vt 0.625000 0.625000
vt 0.625000 0.125000
vt 0.625000 0.125000
vt 0.625000 0.062500
vt 0.625000 0.062500
vt 0.625000 0.078125
vt 0.000000 0.000000
vt 0.515625 0.671875
vt 0.000000 0.000000
vt 1.000000 0.500000
vt 1.000000 1.000000
vt 0.833333 1.000000
vt 0.833333 0.500000
vt 0.666667 1.000000
vt 0.666667 0.500000
vt 0.500000 1.000000
vt 0.500000 0.500000
vt 0.333333 1.000000
vt 0.333333 0.500000
vt 0.166667 1.000000
vt 0.166667 1.000000
vt 0.166667 0.500000
vt -0.000000 1.000000
vt -0.000000 0.500000
vt 1.000000 0.500000
vt 1.000000 1.000000
vt 0.833333 1.000000
vt 0.833333 0.500000
vt 0.666667 1.000000
vt 0.666667 0.500000
vt 0.500000 1.000000
vt 0.500000 0.500000
vt 0.333333 1.000000
vt 0.333333 0.500000
vt 0.666667 1.000000
vt 0.166667 1.000000
vt 0.166667 0.500000
vt -0.000000 1.000000
vt -0.000000 0.500000
vt 1.000000 0.500000
vt 1.000000 1.000000
vt 0.833333 1.000000
vt 0.833333 0.500000
vt 0.666667 1.000000
vt 0.666667 0.500000
vt 0.500000 1.000000
vt 0.500000 0.500000
vt 0.333333 1.000000
vt 0.333333 0.500000
vt 0.333333 1.000000
vt 0.166667 1.000000
vt 0.166667 0.500000
vt -0.000000 1.000000
vt -0.000000 0.500000
vt 0.500000 1.000000
vt 0.833333 1.000000
vt 0.500000 1.000000
vt -0.000000 1.000000
vt 0.333333 1.000000
vt 0.666667 1.000000
vt 0.833333 1.000000
vt 0.166667 1.000000
vt 0.833333 1.000000
vt -0.000000 1.000000
vt 0.333333 1.000000
vt 0.166667 1.000000
vt 0.666667 1.000000
vt 0.500000 1.000000
vt -0.000000 1.000000
vn 0.0000 1.0000 0.0000
vn -0.0000 -1.0000 -0.0000
vn 0.0000 0.0000 1.0000
vn -0.0000 -0.5234 -0.8521
vn 0.0000 -0.8217 -0.5700
vn 0.0000 -0.6683 -0.7439
vn -0.0000 -0.9452 -0.3264
vn -0.0000 0.0001 -1.0000
vn 0.0000 -0.9960 -0.0894
vn 1.0000 -0.0000 -0.0000
vn -1.0000 0.0000 0.0000
vn 1.0000 0.0000 -0.0005
vn 1.0000 -0.0009 -0.0000
vn -0.0001 -0.3896 -0.9210
vn -0.0001 -0.1399 -0.9902
vn 0.5000 0.0000 -0.8660
vn 0.5000 0.0000 0.8660
vn -0.5000 0.0000 0.8660
vn -0.5000 0.0000 -0.8660
usemtl red.008
s off
f 6/1/1 3/2/1 2/3/1 5/4/1
f 4/5/2 7/6/2 18/7/2 1/8/2
f 3/9/3 6/10/3 7/11/3 4/12/3
f 30/13/4 29/14/4 23/15/4 11/16/4
f 13/17/5 19/18/5 22/19/5 10/20/5
f 14/21/1 25/22/1 26/23/1 15/24/1
f 11/16/6 23/15/6 19/18/6 13/17/6
f 10/20/7 22/19/7 28/25/7 17/26/7
f 16/27/8 27/28/8 25/22/8 14/29/8
f 17/26/9 28/25/9 27/30/9 16/31/9
f 8/32/1 20/33/1 5/34/1 2/35/1
f 1/36/10 32/37/10 2/38/10
f 12/39/1 21/40/1 20/33/1 8/32/1
f 5/41/11 20/42/11 23/43/11
f 19/44/11 20/42/11 21/45/11
f 22/46/11 21/45/11 24/47/11
f 23/43/11 20/42/11 19/44/11
f 19/44/11 21/45/11 22/46/11
f 18/48/11 5/49/11 31/50/11
f 28/51/11 22/52/11 24/53/11
f 27/28/11 28/51/11 26/54/11
f 24/53/11 26/54/11 28/51/11
f 26/54/11 25/55/11 27/28/11
f 9/56/1 24/57/1 21/40/1 12/39/1
f 15/24/1 26/23/1 24/58/1 9/59/1
f 18/7/11 7/11/11 6/1/11
f 5/49/11 18/48/11 6/1/11
f 2/60/10 11/16/10 8/32/10
f 11/16/10 13/17/10 8/32/10
f 8/32/10 13/17/10 12/39/10
f 13/17/10 10/20/10 12/39/10
f 12/39/10 10/20/10 9/56/10
f 10/20/10 17/26/10 9/56/10
f 9/56/10 17/26/10 15/24/10
f 17/26/12 16/31/12 15/24/12
f 14/29/13 15/24/13 16/27/13
f 2/38/10 3/2/10 1/36/10
f 4/12/10 1/36/10 3/9/10
f 32/37/14 31/61/14 29/14/14 30/13/14
f 30/13/10 11/16/10 2/38/10
f 5/49/11 23/43/11 29/62/11
f 1/36/15 18/63/15 31/61/15 32/37/15
f 32/37/10 30/13/10 2/38/10
f 5/49/11 29/62/11 31/50/11
f 33/64/16 34/65/16 36/66/16 35/67/16
f 35/67/10 36/66/10 38/68/10 37/69/10
f 37/69/17 38/68/17 40/70/17 39/71/17
f 39/71/18 40/70/18 42/72/18 41/73/18
f 44/74/1 42/72/1 71/75/1
f 41/73/11 42/72/11 44/74/11 43/76/11
f 43/76/19 44/74/19 34/77/19 33/78/19
f 45/79/16 46/80/16 48/81/16 47/82/16
f 47/82/10 48/81/10 50/83/10 49/84/10
f 49/84/17 50/83/17 52/85/17 51/86/17
f 51/86/18 52/85/18 54/87/18 53/88/18
f 50/83/1 48/81/1 69/89/1
f 53/88/11 54/87/11 56/90/11 55/91/11
f 55/91/19 56/90/19 46/92/19 45/93/19
f 57/94/16 58/95/16 60/96/16 59/97/16
f 59/97/10 60/96/10 62/98/10 61/99/10
f 61/99/17 62/98/17 64/100/17 63/101/17
f 63/101/18 64/100/18 66/102/18 65/103/18
f 66/102/1 64/100/1 70/104/1
f 65/103/11 66/102/11 68/105/11 67/106/11
f 67/106/19 68/105/19 58/107/19 57/108/19
f 52/85/1 50/83/1 69/109/1
f 36/66/1 34/65/1 71/110/1
f 40/70/1 38/68/1 71/111/1
f 34/77/1 44/74/1 71/112/1
f 42/72/1 40/70/1 71/113/1
f 38/68/1 36/66/1 71/114/1
f 48/81/1 46/80/1 69/115/1
f 56/90/1 54/87/1 69/116/1
f 60/96/1 58/95/1 70/117/1
f 46/92/1 56/90/1 69/118/1
f 54/87/1 52/85/1 69/119/1
f 68/105/1 66/102/1 70/120/1
f 62/98/1 60/96/1 70/121/1
f 64/100/1 62/98/1 70/122/1
f 58/107/1 68/105/1 70/123/1
