# Blender v2.81 (sub 16) OBJ File: 'window.blend'
# www.blender.org
mtllib 4x3_window.mtl
o Cube
v 2.148176 11.463956 -3.155756
v 2.148176 0.962914 -3.155756
v 2.148176 11.463956 3.155756
v 2.148176 0.962914 3.155756
v -1.003157 11.463956 -3.155756
v -1.003157 0.962914 -3.155756
v -1.000157 11.463956 3.155756
v -1.003157 0.962914 3.155756
v 3.920865 11.463956 -1.563863
v 3.920865 0.962914 -1.563863
v 3.920865 11.463956 1.563863
v 3.920865 0.962914 1.563863
v 2.014330 11.197276 -2.834276
v 2.014330 1.229593 -2.834276
v 2.014330 11.197276 2.834276
v 2.014330 1.229593 2.834276
v -1.003235 11.218215 -2.825474
v -1.003235 1.208654 -2.825474
v -1.000235 11.218215 2.835474
v -1.003235 1.208654 2.835474
v 3.614008 11.194094 -1.437781
v 3.614008 1.232776 -1.437781
v 3.614008 11.194094 1.437781
v 3.614008 1.232776 1.437781
v 3.920865 5.585050 0.924946
v 3.614008 5.585050 0.924946
v 3.920865 7.597810 0.924946
v 3.614008 7.597810 0.924946
v 3.920865 5.585050 -0.924946
v 3.614008 5.585050 -0.924946
v 3.920865 7.875948 -0.876255
v 3.614008 7.875948 -0.876255
v 3.920865 7.597810 -0.924946
v 3.614008 7.597810 -0.924946
v 3.920865 7.875948 0.876255
v 3.614008 7.875948 0.876255
v 3.920865 8.187512 -0.692156
v 3.614008 8.187512 -0.692156
v 3.920865 8.187512 0.692156
v 3.614008 8.187512 0.692156
v 3.920865 8.420180 0.380826
v 3.614008 8.420180 0.380826
v 3.920865 8.420180 -0.380826
v 3.614008 8.420180 -0.380826
v 3.920865 8.495415 -0.120370
v 3.614008 8.495415 -0.120370
v 3.920865 8.495415 0.120370
v 3.614008 8.495415 0.120370
v -0.309332 11.460682 1.766126
v -0.309332 11.665421 1.766127
v 0.210283 11.665421 2.066127
v 0.210283 11.460681 2.066127
v 0.210283 11.665421 2.666126
v 0.210283 11.460681 2.666126
v -0.309332 11.665421 2.966126
v -0.309332 11.460681 2.966126
v -0.828948 11.665421 2.666126
v -0.828948 11.460681 2.666126
v -0.309332 11.665421 2.366127
v -0.828947 11.665421 2.066127
v -0.828947 11.460681 2.066127
v 1.353437 11.460682 1.766126
v 1.353437 11.665421 1.766127
v 1.873052 11.665421 2.066127
v 1.873052 11.460681 2.066127
v 1.873052 11.665421 2.666126
v 1.873052 11.460681 2.666126
v 1.353437 11.665421 2.966127
v 1.353437 11.460681 2.966127
v 0.833822 11.665421 2.666126
v 0.833822 11.460681 2.666126
v 1.353437 11.665421 2.366127
v 0.833822 11.665421 2.066128
v 0.833822 11.460681 2.066128
v -0.309332 11.460682 0.188126
v -0.309332 11.665421 0.188126
v 0.210283 11.665421 0.488126
v 0.210283 11.460682 0.488126
v 0.210283 11.665421 1.088126
v 0.210283 11.460682 1.088126
v -0.309332 11.665421 1.388126
v -0.309332 11.460682 1.388126
v -0.828947 11.665421 1.088126
v -0.828947 11.460682 1.088126
v -0.309332 11.665421 0.788126
v -0.828947 11.665421 0.488126
v -0.828947 11.460682 0.488126
v 1.353437 11.460682 0.188126
v 1.353437 11.665421 0.188126
v 1.873052 11.665421 0.488126
v 1.873052 11.460682 0.488126
v 1.873052 11.665421 1.088126
v 1.873052 11.460682 1.088126
v 1.353437 11.665421 1.388126
v 1.353437 11.460682 1.388126
v 0.833821 11.665421 1.088126
v 0.833821 11.460682 1.088126
v 1.353437 11.665421 0.788126
v 0.833821 11.665421 0.488126
v 0.833821 11.460682 0.488126
v -0.309332 11.460682 -1.389874
v -0.309332 11.665422 -1.389874
v 0.210283 11.665422 -1.089874
v 0.210283 11.460682 -1.089874
v 0.210283 11.665422 -0.489874
v 0.210283 11.460682 -0.489874
v -0.309332 11.665421 -0.189874
v -0.309332 11.460682 -0.189874
v -0.828947 11.665422 -0.489874
v -0.828947 11.460682 -0.489874
v -0.309332 11.665422 -0.789874
v -0.828947 11.665422 -1.089874
v -0.828947 11.460682 -1.089874
v 1.353437 11.460682 -1.389874
v 1.353437 11.665422 -1.389874
v 1.873052 11.665422 -1.089874
v 1.873052 11.460682 -1.089874
v 1.873052 11.665422 -0.489874
v 1.873052 11.460682 -0.489874
v 1.353437 11.665421 -0.189874
v 1.353437 11.460682 -0.189874
v 0.833822 11.665422 -0.489874
v 0.833822 11.460682 -0.489874
v 0.833822 11.665422 -1.089874
v 1.353437 11.665422 -0.789874
v 0.833822 11.460682 -1.089874
v -0.309332 11.460682 -2.967875
v -0.309332 11.665422 -2.967875
v 0.210283 11.665422 -2.667875
v 0.210283 11.460682 -2.667875
v 0.210283 11.665422 -2.067875
v 0.210283 11.460682 -2.067875
v -0.309332 11.665422 -1.767874
v -0.309332 11.460682 -1.767874
v -0.828947 11.665422 -2.067874
v -0.828947 11.460682 -2.067874
v -0.309332 11.665422 -2.367874
v -0.828947 11.665422 -2.667874
v -0.828947 11.460682 -2.667874
v 1.353437 11.460682 -2.967875
v 1.353437 11.665422 -2.967875
v 1.873052 11.665422 -2.667874
v 1.873052 11.460682 -2.667874
v 1.873052 11.665422 -2.067874
v 1.873052 11.460682 -2.067874
v 1.353437 11.665422 -1.767874
v 1.353437 11.460682 -1.767874
v 0.833821 11.665422 -2.067874
v 0.833821 11.460682 -2.067874
v 0.833821 11.665422 -2.667874
v 1.353437 11.665422 -2.367875
v 0.833821 11.460682 -2.667874
v 3.053437 11.460682 0.188126
v 3.053437 11.665421 0.188126
v 3.573052 11.665421 0.488126
v 3.573052 11.460682 0.488126
v 3.573052 11.665421 1.088126
v 3.573052 11.460682 1.088126
v 3.053437 11.665421 1.388126
v 3.053437 11.460682 1.388126
v 2.533821 11.665421 1.088126
v 2.533821 11.460682 1.088126
v 2.533821 11.665421 0.488126
v 2.533821 11.460682 0.488126
v 3.053437 11.460682 -1.389874
v 3.053437 11.665422 -1.389874
v 3.573052 11.665422 -1.089874
v 3.573052 11.460682 -1.089874
v 3.573052 11.665422 -0.489874
v 3.573052 11.460682 -0.489874
v 3.053437 11.665421 -0.189874
v 3.053437 11.460682 -0.189874
v 2.533822 11.665422 -0.489874
v 2.533822 11.460682 -0.489874
v 2.533822 11.665422 -1.089874
v 3.053437 11.665422 -0.789874
v 2.533822 11.460682 -1.089874
v 3.053437 11.665422 0.788126
vt 0.375000 0.000000
vt 0.625000 0.000000
vt 0.625000 0.250000
vt 0.375000 0.250000
vt 0.375000 0.250000
vt 0.625000 0.250000
vt 0.625000 0.500000
vt 0.375000 0.500000
vt 0.375000 0.750000
vt 0.625000 0.750000
vt 0.625000 1.000000
vt 0.375000 1.000000
vt 0.875000 0.750000
vt 0.875000 0.750000
vt 0.625000 0.750000
vt 0.625000 0.500000
vt 0.875000 0.500000
vt 0.625000 1.000000
vt 0.375000 0.250000
vt 0.375000 0.000000
vt 0.375000 0.250000
vt 0.625000 0.250000
vt 0.375000 0.000000
vt 0.375000 0.250000
vt 0.625000 0.250000
vt 0.625000 0.000000
vt 0.375000 0.250000
vt 0.375000 0.500000
vt 0.625000 0.500000
vt 0.625000 0.250000
vt 0.375000 0.750000
vt 0.375000 1.000000
vt 0.625000 1.000000
vt 0.625000 0.750000
vt 0.625000 0.750000
vt 0.875000 0.750000
vt 0.875000 0.750000
vt 0.625000 0.500000
vt 0.875000 0.500000
vt 0.625000 1.000000
vt 0.162179 0.750000
vt 0.375000 0.287180
vt 0.375000 0.000000
vt 0.375000 0.250000
vt 0.625000 0.250000
vt 0.375000 0.250000
vt 0.625000 0.331103
vt 0.625000 0.287179
vt 0.625000 0.287179
vt 0.625000 0.331103
vt 0.375000 0.918897
vt 0.375000 0.962820
vt 0.625000 0.962821
vt 0.625000 0.918897
vt 0.625000 0.962821
vt 0.625000 0.918897
vt 0.625000 0.918897
vt 0.625000 0.962821
vt 0.625000 0.962821
vt 0.625000 0.918897
vt 0.625000 0.331103
vt 0.625000 0.287179
vt 0.625000 0.287179
vt 0.625000 0.331103
vt 0.625000 0.331103
vt 0.625000 0.287179
vt 0.793897 0.750000
vt 0.837821 0.750000
vt 0.837820 0.500000
vt 0.793897 0.500000
vt 0.625000 0.962821
vt 0.625000 0.918897
vt 0.375000 0.331103
vt 0.206103 0.750000
vt 0.206103 0.500000
vt 0.162179 0.500000
vt 1.000000 0.500000
vt 1.000000 1.000000
vt 0.833333 1.000000
vt 0.833333 0.500000
vt 0.666667 1.000000
vt 0.666667 0.500000
vt 0.500000 1.000000
vt 0.500000 0.500000
vt 0.333333 1.000000
vt 0.333333 0.500000
vt 0.500000 1.000000
vt 0.166667 1.000000
vt 0.166667 0.500000
vt -0.000000 1.000000
vt -0.000000 0.500000
vt 1.000000 0.500000
vt 1.000000 1.000000
vt 0.833333 1.000000
vt 0.833333 0.500000
vt 0.666667 1.000000
vt 0.666667 0.500000
vt 0.500000 1.000000
vt 0.500000 0.500000
vt 0.333333 1.000000
vt 0.333333 0.500000
vt 0.833333 1.000000
vt 0.166667 1.000000
vt 0.166667 0.500000
vt -0.000000 1.000000
vt -0.000000 0.500000
vt 1.000000 0.500000
vt 1.000000 1.000000
vt 0.833333 1.000000
vt 0.833333 0.500000
vt 0.666667 1.000000
vt 0.666667 0.500000
vt 0.500000 1.000000
vt 0.500000 0.500000
vt 0.333333 1.000000
vt 0.333333 0.500000
vt 0.666667 1.000000
vt 0.166667 1.000000
vt 0.166667 0.500000
vt -0.000000 1.000000
vt -0.000000 0.500000
vt 1.000000 0.500000
vt 1.000000 1.000000
vt 0.833333 1.000000
vt 0.833333 0.500000
vt 0.666667 1.000000
vt 0.666667 0.500000
vt 0.500000 1.000000
vt 0.500000 0.500000
vt 0.333333 1.000000
vt 0.333333 0.500000
vt 0.666667 1.000000
vt 0.166667 1.000000
vt 0.166667 0.500000
vt -0.000000 1.000000
vt -0.000000 0.500000
vt 1.000000 0.500000
vt 1.000000 1.000000
vt 0.833333 1.000000
vt 0.833333 0.500000
vt 0.666667 1.000000
vt 0.666667 0.500000
vt 0.500000 1.000000
vt 0.500000 0.500000
vt 0.333333 1.000000
vt 0.333333 0.500000
vt 0.333333 1.000000
vt 0.166667 1.000000
vt 0.166667 0.500000
vt -0.000000 1.000000
vt -0.000000 0.500000
vt 1.000000 0.500000
vt 1.000000 1.000000
vt 0.833333 1.000000
vt 0.833333 0.500000
vt 0.666667 1.000000
vt 0.666667 0.500000
vt 0.500000 1.000000
vt 0.500000 0.500000
vt 0.333333 1.000000
vt 0.333333 0.500000
vt -0.000000 1.000000
vt 0.166667 1.000000
vt -0.000000 1.000000
vt 0.166667 0.500000
vt -0.000000 0.500000
vt 1.000000 0.500000
vt 1.000000 1.000000
vt 0.833333 1.000000
vt 0.833333 0.500000
vt 0.666667 1.000000
vt 0.666667 0.500000
vt 0.500000 1.000000
vt 0.500000 0.500000
vt 0.333333 1.000000
vt 0.333333 0.500000
vt 0.500000 1.000000
vt 0.166667 1.000000
vt 0.166667 0.500000
vt -0.000000 1.000000
vt -0.000000 0.500000
vt 1.000000 0.500000
vt 1.000000 1.000000
vt 0.833333 1.000000
vt 0.833333 0.500000
vt 0.666667 1.000000
vt 0.666667 0.500000
vt 0.500000 1.000000
vt 0.500000 0.500000
vt 0.333333 1.000000
vt 0.333333 0.500000
vt 0.166667 1.000000
vt 0.166667 1.000000
vt 0.166667 0.500000
vt -0.000000 1.000000
vt -0.000000 0.500000
vt 0.500000 1.000000
vt -0.000000 1.000000
vt 0.333333 1.000000
vt 0.666667 1.000000
vt 0.166667 1.000000
vt 0.833333 1.000000
vt 0.833333 1.000000
vt 0.166667 1.000000
vt 0.833333 1.000000
vt -0.000000 1.000000
vt 0.333333 1.000000
vt 0.166667 1.000000
vt 0.666667 1.000000
vt 0.666667 1.000000
vt 0.500000 1.000000
vt -0.000000 1.000000
vt 0.333333 1.000000
vt -0.000000 1.000000
vt -0.000000 1.000000
vt 0.166667 1.000000
vt 0.833333 1.000000
vt 0.500000 1.000000
vt 0.833333 1.000000
vt 0.166667 1.000000
vt 0.333333 1.000000
vt 0.666667 1.000000
vt 0.666667 1.000000
vt 0.333333 1.000000
vt 0.500000 1.000000
vt 0.833333 1.000000
vt 0.500000 1.000000
vt 0.833333 1.000000
vt 0.166667 1.000000
vt 0.333333 1.000000
vt -0.000000 1.000000
vt 0.333333 1.000000
vt -0.000000 1.000000
vt 0.500000 1.000000
vt 0.666667 1.000000
vt 0.166667 1.000000
vt 1.000000 0.500000
vt 1.000000 1.000000
vt 0.833333 1.000000
vt 0.833333 0.500000
vt 0.666667 1.000000
vt 0.666667 0.500000
vt 0.500000 1.000000
vt 0.500000 0.500000
vt 0.333333 1.000000
vt 0.333333 0.500000
vt 0.166667 1.000000
vt 0.166667 0.500000
vt -0.000000 1.000000
vt -0.000000 0.500000
vt 1.000000 0.500000
vt 1.000000 1.000000
vt 0.833333 1.000000
vt 0.833333 0.500000
vt 0.666667 1.000000
vt 0.666667 0.500000
vt 0.500000 1.000000
vt 0.500000 0.500000
vt 0.333333 1.000000
vt 0.333333 0.500000
vt -0.000000 1.000000
vt 0.166667 1.000000
vt -0.000000 1.000000
vt 0.166667 0.500000
vt -0.000000 0.500000
vt 0.166667 1.000000
vt 0.666667 1.000000
vt 0.333333 1.000000
vt 0.833333 1.000000
vt 0.500000 1.000000
vt 0.666667 1.000000
vt 0.166667 1.000000
vt 0.500000 1.000000
vt -0.000000 1.000000
vt 0.833333 1.000000
vt 0.333333 1.000000
vn 0.0000 1.0000 -0.0000
vn 0.0000 0.0000 1.0000
vn 0.0000 -1.0000 0.0000
vn 0.6681 0.0000 -0.7440
vn 0.0000 0.0000 -1.0000
vn 0.6681 0.0000 0.7440
vn -0.0069 -1.0000 0.0000
vn -0.0004 0.0000 -1.0000
vn -1.0000 0.0003 0.0005
vn -0.0069 1.0000 0.0000
vn -0.6576 0.0000 0.7533
vn 0.0029 0.0000 1.0000
vn -1.0000 0.0000 0.0000
vn -0.0020 1.0000 0.0000
vn -0.0020 -1.0000 0.0000
vn -0.6576 0.0000 -0.7533
vn -1.0000 0.0000 -0.0002
vn -1.0000 0.0003 0.0002
vn -1.0000 -0.0003 0.0000
vn 0.0000 -0.1724 0.9850
vn 0.0000 -0.8010 -0.5986
vn 0.0000 -0.1724 -0.9850
vn 0.0000 -0.8010 0.5986
vn 0.0000 -0.9607 0.2775
vn 0.0000 -0.9607 -0.2775
vn 0.0000 -0.5087 0.8609
vn 0.0000 -0.5087 -0.8609
vn 1.0000 0.0000 0.0000
vn 0.5000 0.0000 -0.8660
vn 0.5000 0.0000 0.8660
vn -0.5000 0.0000 0.8660
vn -0.5000 0.0000 -0.8660
usemtl grey
s off
f 1/1/1 5/2/1 7/3/1 3/4/1
f 4/5/2 3/6/2 7/7/2 8/8/2
f 6/9/3 2/10/3 4/11/3 8/12/3
f 2/10/4 1/13/4 9/14/4 10/15/4
f 6/16/5 5/17/5 1/13/5 2/10/5
f 4/11/3 2/10/3 10/15/3 12/18/3
f 1/1/1 3/4/1 11/19/1 9/20/1
f 3/6/6 4/5/6 12/21/6 11/22/6
f 13/23/7 15/24/7 19/25/7 17/26/7
f 16/27/8 20/28/8 19/29/8 15/30/8
f 17/26/9 19/25/9 7/3/9 5/2/9
f 18/31/10 20/32/10 16/33/10 14/34/10
f 14/34/11 22/35/11 21/36/11 13/37/11
f 18/38/12 14/34/12 13/37/12 17/39/12
f 22/35/13 24/40/13 26/41/13 30/42/13
f 16/33/14 24/40/14 22/35/14 14/34/14
f 13/23/15 21/43/15 23/44/15 15/24/15
f 15/30/16 23/45/16 24/46/16 16/27/16
f 18/38/17 17/39/17 5/17/17 6/16/17
f 19/29/18 20/28/18 8/8/18 7/7/18
f 20/32/19 18/31/19 6/9/19 8/12/19
f 31/47/20 32/48/20 34/49/20 33/50/20
f 25/51/5 26/52/5 28/53/5 27/54/5
f 42/55/21 41/56/21 39/57/21 40/58/21
f 36/59/22 35/60/22 27/54/22 28/53/22
f 43/61/23 44/62/23 38/63/23 37/64/23
f 45/65/24 46/66/24 44/62/24 43/61/24
f 22/35/13 30/42/13 34/49/13 21/36/13
f 47/67/3 48/68/3 46/69/3 45/70/3
f 48/71/25 47/72/25 41/56/25 42/55/25
f 37/64/26 38/63/26 32/48/26 31/47/26
f 30/42/2 29/73/2 33/50/2 34/49/2
f 40/58/27 39/57/27 35/60/27 36/59/27
f 26/41/1 25/74/1 29/75/1 30/76/1
f 12/21/28 25/51/28 27/54/28 11/22/28
f 10/15/28 29/75/28 25/74/28 12/21/28
f 10/15/28 9/14/28 33/50/28 29/75/28
f 27/54/28 35/60/28 11/22/28
f 33/50/28 9/14/28 31/47/28
f 31/47/28 9/14/28 37/64/28
f 35/60/28 39/57/28 11/22/28
f 39/57/28 41/56/28 11/22/28
f 37/64/28 9/14/28 43/61/28
f 43/61/28 9/14/28 45/65/28
f 41/56/28 47/72/28 11/22/28
f 9/14/28 11/22/28 47/67/28 45/65/28
f 24/40/13 23/45/13 28/53/13 26/41/13
f 28/53/13 23/45/13 36/59/13
f 36/59/13 23/45/13 40/58/13
f 40/58/13 23/45/13 42/55/13
f 42/55/13 23/45/13 48/71/13
f 34/49/13 32/48/13 21/36/13
f 32/48/13 38/63/13 21/36/13
f 44/62/13 21/36/13 38/63/13
f 46/66/13 21/36/13 44/62/13
f 21/36/13 46/66/13 48/68/13 23/45/13
f 49/77/29 50/78/29 51/79/29 52/80/29
f 52/80/28 51/79/28 53/81/28 54/82/28
f 54/82/30 53/81/30 55/83/30 56/84/30
f 56/84/31 55/83/31 57/85/31 58/86/31
f 55/83/1 53/81/1 59/87/1
f 58/86/13 57/85/13 60/88/13 61/89/13
f 61/89/32 60/88/32 50/90/32 49/91/32
f 62/92/29 63/93/29 64/94/29 65/95/29
f 65/95/28 64/94/28 66/96/28 67/97/28
f 67/97/30 66/96/30 68/98/30 69/99/30
f 69/99/31 68/98/31 70/100/31 71/101/31
f 64/94/1 63/93/1 72/102/1
f 71/101/13 70/100/13 73/103/13 74/104/13
f 74/104/32 73/103/32 63/105/32 62/106/32
f 75/107/29 76/108/29 77/109/29 78/110/29
f 78/110/28 77/109/28 79/111/28 80/112/28
f 80/112/30 79/111/30 81/113/30 82/114/30
f 82/114/31 81/113/31 83/115/31 84/116/31
f 79/111/1 77/109/1 85/117/1
f 84/116/13 83/115/13 86/118/13 87/119/13
f 87/119/32 86/118/32 76/120/32 75/121/32
f 88/122/29 89/123/29 90/124/29 91/125/29
f 91/125/28 90/124/28 92/126/28 93/127/28
f 93/127/30 92/126/30 94/128/30 95/129/30
f 95/129/31 94/128/31 96/130/31 97/131/31
f 92/126/1 90/124/1 98/132/1
f 97/131/13 96/130/13 99/133/13 100/134/13
f 100/134/32 99/133/32 89/135/32 88/136/32
f 101/137/29 102/138/29 103/139/29 104/140/29
f 104/140/28 103/139/28 105/141/28 106/142/28
f 106/142/30 105/141/30 107/143/30 108/144/30
f 108/144/31 107/143/31 109/145/31 110/146/31
f 109/145/1 107/143/1 111/147/1
f 110/146/13 109/145/13 112/148/13 113/149/13
f 113/149/32 112/148/32 102/150/32 101/151/32
f 114/152/29 115/153/29 116/154/29 117/155/29
f 117/155/28 116/154/28 118/156/28 119/157/28
f 119/157/30 118/156/30 120/158/30 121/159/30
f 121/159/31 120/158/31 122/160/31 123/161/31
f 115/162/1 124/163/1 125/164/1
f 123/161/13 122/160/13 124/163/13 126/165/13
f 126/165/32 124/163/32 115/162/32 114/166/32
f 127/167/29 128/168/29 129/169/29 130/170/29
f 130/170/28 129/169/28 131/171/28 132/172/28
f 132/172/30 131/171/30 133/173/30 134/174/30
f 134/174/31 133/173/31 135/175/31 136/176/31
f 133/173/1 131/171/1 137/177/1
f 136/176/13 135/175/13 138/178/13 139/179/13
f 139/179/32 138/178/32 128/180/32 127/181/32
f 140/182/29 141/183/29 142/184/29 143/185/29
f 143/185/28 142/184/28 144/186/28 145/187/28
f 145/187/30 144/186/30 146/188/30 147/189/30
f 147/189/31 146/188/31 148/190/31 149/191/31
f 150/192/1 148/190/1 151/193/1
f 149/191/13 148/190/13 150/192/13 152/194/13
f 152/194/32 150/192/32 141/195/32 140/196/32
f 81/113/1 79/111/1 85/197/1
f 50/90/1 60/88/1 59/198/1
f 57/85/1 55/83/1 59/199/1
f 53/81/1 51/79/1 59/200/1
f 60/88/1 57/85/1 59/201/1
f 51/79/1 50/78/1 59/202/1
f 77/109/1 76/108/1 85/203/1
f 86/118/1 83/115/1 85/204/1
f 103/139/1 102/138/1 111/205/1
f 76/120/1 86/118/1 85/206/1
f 83/115/1 81/113/1 85/207/1
f 112/148/1 109/145/1 111/208/1
f 105/141/1 103/139/1 111/209/1
f 131/171/1 129/169/1 137/210/1
f 107/143/1 105/141/1 111/211/1
f 102/150/1 112/148/1 111/212/1
f 135/175/1 133/173/1 137/213/1
f 128/180/1 138/178/1 137/214/1
f 141/195/1 150/192/1 151/215/1
f 138/178/1 135/175/1 137/216/1
f 129/169/1 128/168/1 137/217/1
f 146/188/1 144/186/1 151/218/1
f 142/184/1 141/183/1 151/219/1
f 124/163/1 122/160/1 125/220/1
f 148/190/1 146/188/1 151/221/1
f 144/186/1 142/184/1 151/222/1
f 118/156/1 116/154/1 125/223/1
f 122/160/1 120/158/1 125/224/1
f 94/128/1 92/126/1 98/225/1
f 116/154/1 115/153/1 125/226/1
f 120/158/1 118/156/1 125/227/1
f 90/124/1 89/123/1 98/228/1
f 99/133/1 96/130/1 98/229/1
f 70/100/1 68/98/1 72/230/1
f 89/135/1 99/133/1 98/231/1
f 96/130/1 94/128/1 98/232/1
f 63/105/1 73/103/1 72/233/1
f 68/98/1 66/96/1 72/234/1
f 66/96/1 64/94/1 72/235/1
f 73/103/1 70/100/1 72/236/1
f 153/237/29 154/238/29 155/239/29 156/240/29
f 156/240/28 155/239/28 157/241/28 158/242/28
f 158/242/30 157/241/30 159/243/30 160/244/30
f 160/244/31 159/243/31 161/245/31 162/246/31
f 162/246/13 161/245/13 163/247/13 164/248/13
f 164/248/32 163/247/32 154/249/32 153/250/32
f 165/251/29 166/252/29 167/253/29 168/254/29
f 168/254/28 167/253/28 169/255/28 170/256/28
f 170/256/30 169/255/30 171/257/30 172/258/30
f 172/258/31 171/257/31 173/259/31 174/260/31
f 166/261/1 175/262/1 176/263/1
f 174/260/13 173/259/13 175/262/13 177/264/13
f 177/264/32 175/262/32 166/261/32 165/265/32
f 175/262/1 173/259/1 176/266/1
f 169/255/1 167/253/1 176/267/1
f 173/259/1 171/257/1 176/268/1
f 167/253/1 166/252/1 176/269/1
f 171/257/1 169/255/1 176/270/1
f 157/241/1 155/239/1 178/271/1
f 163/247/1 161/245/1 178/272/1
f 159/243/1 157/241/1 178/273/1
f 154/249/1 163/247/1 178/274/1
f 155/239/1 154/238/1 178/275/1
f 161/245/1 159/243/1 178/276/1
