# Blender v2.80 (sub 75) OBJ File: 'gate.blend'
# www.blender.org
mtllib 4x4_thin.mtl
o Cube.131_Cube.416
v -3.159899 0.111643 3.152991
v -3.159899 -0.108357 3.152991
v -3.159901 0.111643 -3.153269
v -3.159901 -0.108357 -3.153269
v 0.000100 0.111643 3.152991
v 0.000100 -0.108357 3.152991
v 0.000098 0.111643 -3.153270
v 0.000098 -0.108357 -3.153270
v 3.160100 0.111643 3.152990
v 3.160100 -0.108357 3.152990
v 3.160099 0.111643 -3.153270
v 3.160099 -0.108357 -3.153270
v -2.409333 0.099682 1.766126
v -2.409333 0.304422 1.766126
v -1.889718 0.099682 2.066127
v -1.889718 0.304422 2.066127
v -1.889718 0.099682 2.666126
v -1.889718 0.304422 2.666126
v -2.409333 0.099682 2.966126
v -2.409333 0.304422 2.966126
v -2.928949 0.099682 2.666126
v -2.928949 0.304422 2.666126
v -2.928949 0.099682 2.066126
v -2.928949 0.304422 2.066126
v -0.802683 0.099682 1.766126
v -0.802683 0.304422 1.766126
v -0.283067 0.099682 2.066126
v -0.283067 0.304422 2.066126
v -0.283068 0.099682 2.666126
v -0.283068 0.304422 2.666126
v -0.802683 0.099682 2.966126
v -0.802683 0.304422 2.966126
v -1.322298 0.099682 2.666126
v -1.322298 0.304422 2.666126
v -1.322298 0.099682 2.066127
v -1.322298 0.304422 2.066127
v 0.803968 0.099682 1.766126
v 0.803968 0.304422 1.766126
v 1.323583 0.099682 2.066126
v 1.323583 0.304422 2.066126
v 1.323583 0.099682 2.666126
v 1.323583 0.304422 2.666126
v 0.803968 0.099682 2.966126
v 0.803968 0.304422 2.966126
v 0.284352 0.099682 2.666126
v 0.284352 0.304422 2.666126
v 0.284352 0.099682 2.066127
v 0.284352 0.304422 2.066127
v 2.410618 0.099682 1.766126
v 2.410618 0.304422 1.766126
v 2.930233 0.099682 2.066126
v 2.930233 0.304422 2.066126
v 2.930233 0.099682 2.666126
v 2.930233 0.304422 2.666126
v 2.410618 0.099682 2.966127
v 2.410618 0.304422 2.966127
v 1.891003 0.099682 2.666126
v 1.891003 0.304422 2.666126
v 1.891003 0.099682 2.066126
v 1.891003 0.304422 2.066126
v -2.409333 0.099682 0.188126
v -2.409333 0.304422 0.188126
v -1.889718 0.099682 0.488126
v -1.889718 0.304422 0.488126
v -1.889718 0.099682 1.088126
v -1.889718 0.304422 1.088126
v -2.409333 0.099682 1.388126
v -2.409333 0.304422 1.388126
v -2.928949 0.099682 1.088126
v -2.928949 0.304422 1.088126
v -2.928948 0.099682 0.488126
v -2.928948 0.304422 0.488126
v -0.802683 0.099682 0.188126
v -0.802683 0.304422 0.188126
v -0.283068 0.099682 0.488126
v -0.283068 0.304422 0.488126
v -0.283067 0.099682 1.088126
v -0.283067 0.304422 1.088126
v -0.802683 0.099682 1.388126
v -0.802683 0.304422 1.388126
v -1.322298 0.099682 1.088126
v -1.322298 0.304422 1.088126
v -1.322298 0.099682 0.488126
v -1.322298 0.304422 0.488126
v 0.803968 0.099682 0.188126
v 0.803968 0.304422 0.188126
v 1.323583 0.099682 0.488126
v 1.323583 0.304422 0.488126
v 1.323583 0.099682 1.088126
v 1.323583 0.304422 1.088126
v 0.803968 0.099682 1.388126
v 0.803968 0.304422 1.388126
v 0.284352 0.099682 1.088126
v 0.284352 0.304422 1.088126
v 0.284352 0.099682 0.488126
v 0.284352 0.304422 0.488126
v 2.410618 0.099682 0.188126
v 2.410618 0.304422 0.188126
v 2.930233 0.099682 0.488126
v 2.930233 0.304422 0.488126
v 2.930233 0.099682 1.088126
v 2.930233 0.304422 1.088126
v 2.410618 0.099682 1.388126
v 2.410618 0.304422 1.388126
v 1.891003 0.099682 1.088126
v 1.891003 0.304422 1.088126
v 1.891003 0.099682 0.488126
v 1.891003 0.304422 0.488126
v -2.409333 0.099682 -1.389874
v -2.409333 0.304422 -1.389874
v -1.889718 0.099682 -1.089874
v -1.889718 0.304422 -1.089874
v -1.889718 0.099682 -0.489874
v -1.889718 0.304422 -0.489874
v -2.409333 0.099682 -0.189874
v -2.409333 0.304422 -0.189874
v -2.928949 0.099682 -0.489874
v -2.928949 0.304422 -0.489874
v -2.928948 0.099682 -1.089874
v -2.928948 0.304422 -1.089874
v -0.802683 0.099682 -1.389874
v -0.802683 0.304422 -1.389874
v -0.283067 0.099682 -1.089874
v -0.283067 0.304422 -1.089874
v -0.283067 0.099682 -0.489874
v -0.283067 0.304422 -0.489874
v -0.802683 0.099682 -0.189874
v -0.802683 0.304422 -0.189874
v -1.322298 0.099682 -0.489874
v -1.322298 0.304422 -0.489874
v -1.322298 0.099682 -1.089874
v -1.322298 0.304422 -1.089874
v 0.803968 0.099682 -1.389874
v 0.803968 0.304422 -1.389874
v 1.323583 0.099682 -1.089874
v 1.323583 0.304422 -1.089874
v 1.323583 0.099682 -0.489874
v 1.323583 0.304422 -0.489874
v 0.803968 0.099682 -0.189874
v 0.803968 0.304422 -0.189874
v 0.284352 0.099682 -0.489874
v 0.284352 0.304422 -0.489874
v 0.284352 0.099682 -1.089874
v 0.284352 0.304422 -1.089874
v 2.410618 0.099682 -1.389874
v 2.410618 0.304422 -1.389874
v 2.930233 0.099682 -1.089874
v 2.930233 0.304422 -1.089874
v 2.930233 0.099682 -0.489874
v 2.930233 0.304422 -0.489874
v 2.410618 0.099682 -0.189874
v 2.410618 0.304422 -0.189874
v 1.891003 0.099682 -0.489874
v 1.891003 0.304422 -0.489874
v 1.891003 0.099682 -1.089874
v 1.891003 0.304422 -1.089874
v -2.409333 0.099682 -2.967875
v -2.409333 0.304422 -2.967875
v -1.889718 0.099682 -2.667874
v -1.889718 0.304422 -2.667874
v -1.889718 0.099682 -2.067874
v -1.889718 0.304422 -2.067874
v -2.409333 0.099682 -1.767874
v -2.409333 0.304422 -1.767874
v -2.928949 0.099682 -2.067874
v -2.928949 0.304422 -2.067874
v -2.928949 0.099682 -2.667874
v -2.928949 0.304422 -2.667874
v -0.802683 0.099682 -2.967875
v -0.802683 0.304422 -2.967875
v -0.283067 0.099682 -2.667874
v -0.283067 0.304422 -2.667874
v -0.283067 0.099682 -2.067874
v -0.283067 0.304422 -2.067874
v -0.802683 0.099682 -1.767874
v -0.802683 0.304422 -1.767874
v -1.322298 0.099682 -2.067874
v -1.322298 0.304422 -2.067874
v -1.322298 0.099682 -2.667874
v -1.322298 0.304422 -2.667874
v 0.803968 0.099682 -2.967874
v 0.803968 0.304422 -2.967874
v 1.323583 0.099682 -2.667875
v 1.323583 0.304422 -2.667875
v 1.323583 0.099682 -2.067874
v 1.323583 0.304422 -2.067874
v 0.803968 0.099682 -1.767874
v 0.803968 0.304422 -1.767874
v 0.284352 0.099682 -2.067874
v 0.284352 0.304422 -2.067874
v 0.284352 0.099682 -2.667874
v 0.284352 0.304422 -2.667874
v 2.410619 0.099682 -2.967874
v 2.410619 0.304422 -2.967874
v 2.930233 0.099682 -2.667874
v 2.930233 0.304422 -2.667874
v 2.930233 0.099682 -2.067874
v 2.930233 0.304422 -2.067874
v 2.410619 0.099682 -1.767874
v 2.410619 0.304422 -1.767874
v 1.891003 0.099682 -2.067874
v 1.891003 0.304422 -2.067874
v 1.891003 0.099682 -2.667874
v 1.891003 0.304422 -2.667874
v -2.409333 0.304422 2.366127
v -2.409333 0.304422 0.788126
v -2.409333 0.304422 -0.789874
v -2.409333 0.304422 -2.367874
v -0.802683 0.304422 0.788126
v -0.802683 0.304422 2.366127
v -0.802683 0.304422 -0.789874
v -0.802683 0.304422 -2.367874
v 0.803968 0.304422 -2.367874
v 0.803968 0.304422 -0.789874
v 0.803968 0.304422 0.788126
v 0.803968 0.304422 2.366126
v 2.410618 0.304422 2.366127
v 2.410618 0.304422 0.788126
v 2.410618 0.304422 -0.789874
v 2.410618 0.304422 -2.367874
vt 0.375000 0.000000
vt 0.625000 0.000000
vt 0.625000 0.250000
vt 0.375000 0.250000
vt 0.375000 0.250000
vt 0.625000 0.250000
vt 0.625000 0.500000
vt 0.375000 0.500000
vt 0.375000 0.750000
vt 0.625000 0.750000
vt 0.625000 1.000000
vt 0.375000 1.000000
vt 0.125000 0.500000
vt 0.375000 0.500000
vt 0.375000 0.750000
vt 0.125000 0.750000
vt 0.625000 0.500000
vt 0.875000 0.500000
vt 0.875000 0.750000
vt 0.375000 0.000000
vt 0.625000 0.000000
vt 0.625000 0.250000
vt 0.375000 0.250000
vt 0.375000 0.250000
vt 0.625000 0.500000
vt 0.375000 0.500000
vt 0.625000 0.750000
vt 0.375000 0.750000
vt 0.625000 0.750000
vt 0.625000 1.000000
vt 0.375000 1.000000
vt 0.625000 0.500000
vt 0.875000 0.500000
vt 0.875000 0.750000
vt 1.000000 0.500000
vt 1.000000 1.000000
vt 0.833333 1.000000
vt 0.833333 0.500000
vt 0.666667 1.000000
vt 0.666667 0.500000
vt 0.500000 1.000000
vt 0.500000 0.500000
vt 0.333333 1.000000
vt 0.333333 0.500000
vt 0.333333 1.000000
vt 0.166667 1.000000
vt 0.166667 0.500000
vt -0.000000 1.000000
vt -0.000000 0.500000
vt 1.000000 0.500000
vt 1.000000 1.000000
vt 0.833333 1.000000
vt 0.833333 0.500000
vt 0.666667 1.000000
vt 0.666667 0.500000
vt 0.500000 1.000000
vt 0.500000 0.500000
vt 0.333333 1.000000
vt 0.333333 0.500000
vt 0.500000 1.000000
vt 0.166667 1.000000
vt 0.166667 0.500000
vt -0.000000 1.000000
vt -0.000000 0.500000
vt 1.000000 0.500000
vt 1.000000 1.000000
vt 0.833333 1.000000
vt 0.833333 0.500000
vt 0.666667 1.000000
vt 0.666667 0.500000
vt 0.500000 1.000000
vt 0.500000 0.500000
vt 0.333333 1.000000
vt 0.333333 0.500000
vt 0.833333 1.000000
vt 0.166667 1.000000
vt 0.166667 0.500000
vt -0.000000 1.000000
vt -0.000000 0.500000
vt 1.000000 0.500000
vt 1.000000 1.000000
vt 0.833333 1.000000
vt 0.833333 0.500000
vt 0.666667 1.000000
vt 0.666667 0.500000
vt 0.500000 1.000000
vt 0.500000 0.500000
vt 0.333333 1.000000
vt 0.333333 0.500000
vt 0.666667 1.000000
vt 0.166667 1.000000
vt 0.166667 0.500000
vt -0.000000 1.000000
vt -0.000000 0.500000
vt 1.000000 0.500000
vt 1.000000 1.000000
vt 0.833333 1.000000
vt 0.833333 0.500000
vt 0.666667 1.000000
vt 0.666667 0.500000
vt 0.500000 1.000000
vt 0.500000 0.500000
vt 0.333333 1.000000
vt 0.333333 0.500000
vt 0.666667 1.000000
vt 0.166667 1.000000
vt 0.166667 0.500000
vt -0.000000 1.000000
vt -0.000000 0.500000
vt 1.000000 0.500000
vt 1.000000 1.000000
vt 0.833333 1.000000
vt 0.833333 0.500000
vt 0.666667 1.000000
vt 0.666667 0.500000
vt 0.500000 1.000000
vt 0.500000 0.500000
vt 0.333333 1.000000
vt 0.333333 0.500000
vt 0.333333 1.000000
vt 0.166667 1.000000
vt 0.166667 0.500000
vt -0.000000 1.000000
vt -0.000000 0.500000
vt 1.000000 0.500000
vt 1.000000 1.000000
vt 0.833333 1.000000
vt 0.833333 0.500000
vt 0.666667 1.000000
vt 0.666667 0.500000
vt 0.500000 1.000000
vt 0.500000 0.500000
vt 0.333333 1.000000
vt 0.333333 0.500000
vt -0.000000 1.000000
vt 0.166667 1.000000
vt -0.000000 1.000000
vt 0.166667 0.500000
vt -0.000000 0.500000
vt 1.000000 0.500000
vt 1.000000 1.000000
vt 0.833333 1.000000
vt 0.833333 0.500000
vt 0.666667 1.000000
vt 0.666667 0.500000
vt 0.500000 1.000000
vt 0.500000 0.500000
vt 0.333333 1.000000
vt 0.333333 0.500000
vt 0.500000 1.000000
vt 0.166667 1.000000
vt 0.166667 0.500000
vt -0.000000 1.000000
vt -0.000000 0.500000
vt 1.000000 0.500000
vt 1.000000 1.000000
vt 0.833333 1.000000
vt 0.833333 0.500000
vt 0.666667 1.000000
vt 0.666667 0.500000
vt 0.500000 1.000000
vt 0.500000 0.500000
vt 0.333333 1.000000
vt 0.333333 0.500000
vt 0.166667 1.000000
vt 0.166667 1.000000
vt 0.166667 0.500000
vt -0.000000 1.000000
vt -0.000000 0.500000
vt 1.000000 0.500000
vt 1.000000 1.000000
vt 0.833333 1.000000
vt 0.833333 0.500000
vt 0.666667 1.000000
vt 0.666667 0.500000
vt 0.500000 1.000000
vt 0.500000 0.500000
vt 0.333333 1.000000
vt 0.333333 0.500000
vt 0.666667 1.000000
vt 0.166667 1.000000
vt 0.166667 0.500000
vt -0.000000 1.000000
vt -0.000000 0.500000
vt 1.000000 0.500000
vt 1.000000 1.000000
vt 0.833333 1.000000
vt 0.833333 0.500000
vt 0.666667 1.000000
vt 0.666667 0.500000
vt 0.500000 1.000000
vt 0.500000 0.500000
vt 0.333333 1.000000
vt 0.333333 0.500000
vt 0.333333 1.000000
vt 0.166667 1.000000
vt 0.166667 0.500000
vt -0.000000 1.000000
vt -0.000000 0.500000
vt 1.000000 0.500000
vt 1.000000 1.000000
vt 0.833333 1.000000
vt 0.833333 0.500000
vt 0.666667 1.000000
vt 0.666667 0.500000
vt 0.500000 1.000000
vt 0.500000 0.500000
vt 0.333333 1.000000
vt 0.333333 0.500000
vt 0.333333 1.000000
vt 0.166667 1.000000
vt 0.166667 0.500000
vt -0.000000 1.000000
vt -0.000000 0.500000
vt 1.000000 0.500000
vt 1.000000 1.000000
vt 0.833333 1.000000
vt 0.833333 0.500000
vt 0.666667 1.000000
vt 0.666667 0.500000
vt 0.500000 1.000000
vt 0.500000 0.500000
vt 0.333333 1.000000
vt 0.333333 0.500000
vt 0.500000 1.000000
vt 0.166667 1.000000
vt 0.166667 0.500000
vt -0.000000 1.000000
vt -0.000000 0.500000
vt 1.000000 0.500000
vt 1.000000 1.000000
vt 0.833333 1.000000
vt 0.833333 0.500000
vt 0.666667 1.000000
vt 0.666667 0.500000
vt 0.500000 1.000000
vt 0.500000 0.500000
vt 0.333333 1.000000
vt 0.333333 0.500000
vt 0.833333 1.000000
vt 0.166667 1.000000
vt 0.166667 0.500000
vt -0.000000 1.000000
vt -0.000000 0.500000
vt 1.000000 0.500000
vt 1.000000 1.000000
vt 0.833333 1.000000
vt 0.833333 0.500000
vt 0.666667 1.000000
vt 0.666667 0.500000
vt 0.500000 1.000000
vt 0.500000 0.500000
vt 0.333333 1.000000
vt 0.333333 0.500000
vt 0.666667 1.000000
vt 0.166667 1.000000
vt 0.166667 0.500000
vt -0.000000 1.000000
vt -0.000000 0.500000
vt 1.000000 0.500000
vt 1.000000 1.000000
vt 0.833333 1.000000
vt 0.833333 0.500000
vt 0.666667 1.000000
vt 0.666667 0.500000
vt 0.500000 1.000000
vt 0.500000 0.500000
vt 0.333333 1.000000
vt 0.333333 0.500000
vt 0.666667 1.000000
vt 0.166667 1.000000
vt 0.166667 0.500000
vt -0.000000 1.000000
vt -0.000000 0.500000
vt 0.833333 1.000000
vt 0.666667 1.000000
vt 0.166667 1.000000
vt 0.833333 1.000000
vt 0.500000 1.000000
vt -0.000000 1.000000
vt 0.166667 1.000000
vt 0.666667 1.000000
vt 0.500000 1.000000
vt 0.500000 1.000000
vt -0.000000 1.000000
vt 0.833333 1.000000
vt 0.166667 1.000000
vt -0.000000 1.000000
vt -0.000000 1.000000
vt 0.333333 1.000000
vt 0.500000 1.000000
vt 0.833333 1.000000
vt 0.666667 1.000000
vt 0.333333 1.000000
vt 0.666667 1.000000
vt 0.333333 1.000000
vt -0.000000 1.000000
vt 0.666667 1.000000
vt 0.166667 1.000000
vt 0.833333 1.000000
vt 0.333333 1.000000
vt -0.000000 1.000000
vt 0.500000 1.000000
vt 0.166667 1.000000
vt 0.833333 1.000000
vt 0.833333 1.000000
vt 0.166667 1.000000
vt 0.333333 1.000000
vt -0.000000 1.000000
vt 0.333333 1.000000
vt -0.000000 1.000000
vt 0.500000 1.000000
vt 0.500000 1.000000
vt 0.666667 1.000000
vt 0.166667 1.000000
vt 0.833333 1.000000
vt 0.166667 1.000000
vt 0.833333 1.000000
vt -0.000000 1.000000
vt 0.333333 1.000000
vt 0.166667 1.000000
vt 0.666667 1.000000
vt 0.166667 1.000000
vt 0.500000 1.000000
vt -0.000000 1.000000
vt 0.666667 1.000000
vt 0.333333 1.000000
vt 0.333333 1.000000
vt 0.833333 1.000000
vt 0.500000 1.000000
vt -0.000000 1.000000
vt 0.500000 1.000000
vt 0.500000 1.000000
vt 0.666667 1.000000
vt 0.166667 1.000000
vt 0.833333 1.000000
vt 0.166667 1.000000
vt 0.666667 1.000000
vt -0.000000 1.000000
vt 0.333333 1.000000
vt 0.333333 1.000000
vt -0.000000 1.000000
vt 0.833333 1.000000
vt 0.166667 1.000000
vt 0.833333 1.000000
vt 0.166667 1.000000
vt 0.666667 1.000000
vt 0.500000 1.000000
vt 0.500000 1.000000
vt -0.000000 1.000000
vt 0.833333 1.000000
vt 0.166667 1.000000
vt -0.000000 1.000000
vt 0.333333 1.000000
vn 0.0000 1.0000 0.0000
vn -0.0000 0.0000 -1.0000
vn 0.0000 -1.0000 0.0000
vn -1.0000 0.0000 0.0000
vn 0.0000 0.0000 1.0000
vn 1.0000 0.0000 -0.0000
vn 0.5000 0.0000 -0.8660
vn 0.5000 0.0000 0.8660
vn -0.5000 0.0000 0.8660
vn -0.5000 0.0000 -0.8660
usemtl red.008
s off
f 1/1/1 5/2/1 7/3/1 3/4/1
f 4/5/2 3/6/2 7/7/2 8/8/2
f 6/9/3 2/10/3 4/11/3 8/12/3
f 2/13/4 1/14/4 3/15/4 4/16/4
f 6/17/5 5/18/5 1/19/5 2/10/5
f 5/20/1 9/21/1 11/22/1 7/23/1
f 8/24/2 7/3/2 11/25/2 12/26/2
f 12/26/6 11/25/6 9/27/6 10/28/6
f 10/28/3 6/29/3 8/30/3 12/31/3
f 10/32/5 9/33/5 5/34/5 6/29/5
f 13/35/7 14/36/7 16/37/7 15/38/7
f 15/38/6 16/37/6 18/39/6 17/40/6
f 17/40/8 18/39/8 20/41/8 19/42/8
f 19/42/9 20/41/9 22/43/9 21/44/9
f 22/43/1 20/41/1 205/45/1
f 21/44/4 22/43/4 24/46/4 23/47/4
f 23/47/10 24/46/10 14/48/10 13/49/10
f 25/50/7 26/51/7 28/52/7 27/53/7
f 27/53/6 28/52/6 30/54/6 29/55/6
f 29/55/8 30/54/8 32/56/8 31/57/8
f 31/57/9 32/56/9 34/58/9 33/59/9
f 32/56/1 30/54/1 210/60/1
f 33/59/4 34/58/4 36/61/4 35/62/4
f 35/62/10 36/61/10 26/63/10 25/64/10
f 37/65/7 38/66/7 40/67/7 39/68/7
f 39/68/6 40/67/6 42/69/6 41/70/6
f 41/70/8 42/69/8 44/71/8 43/72/8
f 43/72/9 44/71/9 46/73/9 45/74/9
f 40/67/1 38/66/1 216/75/1
f 45/74/4 46/73/4 48/76/4 47/77/4
f 47/77/10 48/76/10 38/78/10 37/79/10
f 49/80/7 50/81/7 52/82/7 51/83/7
f 51/83/6 52/82/6 54/84/6 53/85/6
f 53/85/8 54/84/8 56/86/8 55/87/8
f 55/87/9 56/86/9 58/88/9 57/89/9
f 54/84/1 52/82/1 217/90/1
f 57/89/4 58/88/4 60/91/4 59/92/4
f 59/92/10 60/91/10 50/93/10 49/94/10
f 61/95/7 62/96/7 64/97/7 63/98/7
f 63/98/6 64/97/6 66/99/6 65/100/6
f 65/100/8 66/99/8 68/101/8 67/102/8
f 67/102/9 68/101/9 70/103/9 69/104/9
f 66/99/1 64/97/1 206/105/1
f 69/104/4 70/103/4 72/106/4 71/107/4
f 71/107/10 72/106/10 62/108/10 61/109/10
f 73/110/7 74/111/7 76/112/7 75/113/7
f 75/113/6 76/112/6 78/114/6 77/115/6
f 77/115/8 78/114/8 80/116/8 79/117/8
f 79/117/9 80/116/9 82/118/9 81/119/9
f 82/118/1 80/116/1 209/120/1
f 81/119/4 82/118/4 84/121/4 83/122/4
f 83/122/10 84/121/10 74/123/10 73/124/10
f 85/125/7 86/126/7 88/127/7 87/128/7
f 87/128/6 88/127/6 90/129/6 89/130/6
f 89/130/8 90/129/8 92/131/8 91/132/8
f 91/132/9 92/131/9 94/133/9 93/134/9
f 86/135/1 96/136/1 215/137/1
f 93/134/4 94/133/4 96/136/4 95/138/4
f 95/138/10 96/136/10 86/135/10 85/139/10
f 97/140/7 98/141/7 100/142/7 99/143/7
f 99/143/6 100/142/6 102/144/6 101/145/6
f 101/145/8 102/144/8 104/146/8 103/147/8
f 103/147/9 104/146/9 106/148/9 105/149/9
f 104/146/1 102/144/1 218/150/1
f 105/149/4 106/148/4 108/151/4 107/152/4
f 107/152/10 108/151/10 98/153/10 97/154/10
f 109/155/7 110/156/7 112/157/7 111/158/7
f 111/158/6 112/157/6 114/159/6 113/160/6
f 113/160/8 114/159/8 116/161/8 115/162/8
f 115/162/9 116/161/9 118/163/9 117/164/9
f 120/165/1 118/163/1 207/166/1
f 117/164/4 118/163/4 120/165/4 119/167/4
f 119/167/10 120/165/10 110/168/10 109/169/10
f 121/170/7 122/171/7 124/172/7 123/173/7
f 123/173/6 124/172/6 126/174/6 125/175/6
f 125/175/8 126/174/8 128/176/8 127/177/8
f 127/177/9 128/176/9 130/178/9 129/179/9
f 126/174/1 124/172/1 211/180/1
f 129/179/4 130/178/4 132/181/4 131/182/4
f 131/182/10 132/181/10 122/183/10 121/184/10
f 133/185/7 134/186/7 136/187/7 135/188/7
f 135/188/6 136/187/6 138/189/6 137/190/6
f 137/190/8 138/189/8 140/191/8 139/192/8
f 139/192/9 140/191/9 142/193/9 141/194/9
f 142/193/1 140/191/1 214/195/1
f 141/194/4 142/193/4 144/196/4 143/197/4
f 143/197/10 144/196/10 134/198/10 133/199/10
f 145/200/7 146/201/7 148/202/7 147/203/7
f 147/203/6 148/202/6 150/204/6 149/205/6
f 149/205/8 150/204/8 152/206/8 151/207/8
f 151/207/9 152/206/9 154/208/9 153/209/9
f 154/208/1 152/206/1 219/210/1
f 153/209/4 154/208/4 156/211/4 155/212/4
f 155/212/10 156/211/10 146/213/10 145/214/10
f 157/215/7 158/216/7 160/217/7 159/218/7
f 159/218/6 160/217/6 162/219/6 161/220/6
f 161/220/8 162/219/8 164/221/8 163/222/8
f 163/222/9 164/221/9 166/223/9 165/224/9
f 164/221/1 162/219/1 208/225/1
f 165/224/4 166/223/4 168/226/4 167/227/4
f 167/227/10 168/226/10 158/228/10 157/229/10
f 169/230/7 170/231/7 172/232/7 171/233/7
f 171/233/6 172/232/6 174/234/6 173/235/6
f 173/235/8 174/234/8 176/236/8 175/237/8
f 175/237/9 176/236/9 178/238/9 177/239/9
f 172/232/1 170/231/1 212/240/1
f 177/239/4 178/238/4 180/241/4 179/242/4
f 179/242/10 180/241/10 170/243/10 169/244/10
f 181/245/7 182/246/7 184/247/7 183/248/7
f 183/248/6 184/247/6 186/249/6 185/250/6
f 185/250/8 186/249/8 188/251/8 187/252/8
f 187/252/9 188/251/9 190/253/9 189/254/9
f 186/249/1 184/247/1 213/255/1
f 189/254/4 190/253/4 192/256/4 191/257/4
f 191/257/10 192/256/10 182/258/10 181/259/10
f 193/260/7 194/261/7 196/262/7 195/263/7
f 195/263/6 196/262/6 198/264/6 197/265/6
f 197/265/8 198/264/8 200/266/8 199/267/8
f 199/267/9 200/266/9 202/268/9 201/269/9
f 198/264/1 196/262/1 220/270/1
f 201/269/4 202/268/4 204/271/4 203/272/4
f 203/272/10 204/271/10 194/273/10 193/274/10
f 16/37/1 14/36/1 205/275/1
f 78/114/1 76/112/1 209/276/1
f 84/121/1 82/118/1 209/277/1
f 76/112/1 74/111/1 209/278/1
f 80/116/1 78/114/1 209/279/1
f 74/123/1 84/121/1 209/280/1
f 24/46/1 22/43/1 205/281/1
f 18/39/1 16/37/1 205/282/1
f 68/101/1 66/99/1 206/283/1
f 20/41/1 18/39/1 205/284/1
f 14/48/1 24/46/1 205/285/1
f 64/97/1 62/96/1 206/286/1
f 72/106/1 70/103/1 206/287/1
f 110/168/1 120/165/1 207/288/1
f 62/108/1 72/106/1 206/289/1
f 70/103/1 68/101/1 206/290/1
f 116/161/1 114/159/1 207/291/1
f 112/157/1 110/156/1 207/292/1
f 162/219/1 160/217/1 208/293/1
f 118/163/1 116/161/1 207/294/1
f 114/159/1 112/157/1 207/295/1
f 166/223/1 164/221/1 208/296/1
f 158/228/1 168/226/1 208/297/1
f 30/54/1 28/52/1 210/298/1
f 168/226/1 166/223/1 208/299/1
f 160/217/1 158/216/1 208/300/1
f 34/58/1 32/56/1 210/301/1
f 26/63/1 36/61/1 210/302/1
f 128/176/1 126/174/1 211/303/1
f 36/61/1 34/58/1 210/304/1
f 28/52/1 26/51/1 210/305/1
f 124/172/1 122/171/1 211/306/1
f 132/181/1 130/178/1 211/307/1
f 178/238/1 176/236/1 212/308/1
f 122/183/1 132/181/1 211/309/1
f 130/178/1 128/176/1 211/310/1
f 170/243/1 180/241/1 212/311/1
f 176/236/1 174/234/1 212/312/1
f 188/251/1 186/249/1 213/313/1
f 174/234/1 172/232/1 212/314/1
f 180/241/1 178/238/1 212/315/1
f 184/247/1 182/246/1 213/316/1
f 192/256/1 190/253/1 213/317/1
f 136/187/1 134/186/1 214/318/1
f 182/258/1 192/256/1 213/319/1
f 190/253/1 188/251/1 213/320/1
f 144/196/1 142/193/1 214/321/1
f 138/189/1 136/187/1 214/322/1
f 96/136/1 94/133/1 215/323/1
f 140/191/1 138/189/1 214/324/1
f 134/198/1 144/196/1 214/325/1
f 90/129/1 88/127/1 215/326/1
f 94/133/1 92/131/1 215/327/1
f 46/73/1 44/71/1 216/328/1
f 88/127/1 86/126/1 215/329/1
f 92/131/1 90/129/1 215/330/1
f 38/78/1 48/76/1 216/331/1
f 44/71/1 42/69/1 216/332/1
f 56/86/1 54/84/1 217/333/1
f 42/69/1 40/67/1 216/334/1
f 48/76/1 46/73/1 216/335/1
f 52/82/1 50/81/1 217/336/1
f 60/91/1 58/88/1 217/337/1
f 102/144/1 100/142/1 218/338/1
f 50/93/1 60/91/1 217/339/1
f 58/88/1 56/86/1 217/340/1
f 106/148/1 104/146/1 218/341/1
f 98/153/1 108/151/1 218/342/1
f 148/202/1 146/201/1 219/343/1
f 108/151/1 106/148/1 218/344/1
f 100/142/1 98/141/1 218/345/1
f 156/211/1 154/208/1 219/346/1
f 150/204/1 148/202/1 219/347/1
f 200/266/1 198/264/1 220/348/1
f 152/206/1 150/204/1 219/349/1
f 146/213/1 156/211/1 219/350/1
f 196/262/1 194/261/1 220/351/1
f 204/271/1 202/268/1 220/352/1
f 194/273/1 204/271/1 220/353/1
f 202/268/1 200/266/1 220/354/1
