# Blender v2.80 (sub 75) OBJ File: ''
# www.blender.org
mtllib arrow.mtl
o Cube_Cube.001
v -2.344795 0.044266 -0.131364
v -2.337996 0.067551 -0.081523
v -0.566504 0.039306 -0.072616
v -0.568435 0.025694 -0.123318
v -0.566382 0.061015 -0.044969
v -0.567274 0.085853 -0.046351
v -0.572460 0.120077 -0.050069
v -0.569377 0.097881 -0.100279
v -0.568422 0.025694 0.123087
v -0.566498 0.039307 0.072415
v -2.339158 0.067270 0.065906
v -2.348827 0.044024 0.126035
v -0.566381 -0.061081 0.044794
v -0.566499 -0.039369 0.072415
v -2.337881 -0.084614 0.066128
v -2.344608 -0.135222 0.042958
v -2.349336 0.130045 -0.049858
v -0.566379 0.061018 0.044793
v -2.349041 0.129877 0.042785
v -2.474377 -0.049206 -0.192224
v -2.345100 -0.052128 -0.131507
v -2.492528 -0.047961 -0.124887
v -2.782315 -0.053375 -0.277094
v -0.566505 -0.039367 -0.072617
v -0.566383 -0.061078 -0.044970
v -2.344883 -0.135387 -0.050045
v -2.336731 -0.084984 -0.081800
v -2.536783 0.203098 -0.047009
v -2.489275 -0.075901 -0.074513
v -2.472104 0.047807 -0.192224
v -2.779718 0.052672 -0.277024
v -2.490325 0.044313 -0.124891
v -2.491745 -0.126088 -0.046653
v -2.506737 0.122992 -0.046706
v -2.954853 0.348133 -0.056860
v -0.568423 -0.025750 0.123087
v -2.349151 -0.051846 0.126185
v -2.496351 0.047619 0.190816
v -0.573067 0.008721 0.191396
v -0.567272 0.085857 0.046195
v -0.572459 0.120076 0.050054
v -0.569372 -0.097928 0.100126
v -0.571095 -0.071468 0.151483
v -0.573087 0.008722 -0.191644
v -0.580607 0.056428 -0.268767
v -0.601880 -0.000013 -0.506674
v -0.567273 -0.085913 0.046197
v -0.572459 -0.120104 0.050054
v -0.567276 -0.085908 -0.046352
v -0.572461 -0.120104 -0.050069
v -0.573067 -0.008757 0.191396
v -0.580585 -0.056460 0.268538
v -0.601875 -0.000013 0.506553
v -0.569371 0.097883 0.100122
v -0.571108 0.071417 -0.151702
v -0.568435 -0.025750 -0.123318
v -0.573087 -0.008758 -0.191644
v -2.534565 0.203098 0.045955
v -2.504654 -0.203882 0.045836
v -2.506862 -0.203882 -0.046771
v -2.487954 -0.075800 0.067377
v -2.489741 -0.126086 0.043159
v -0.569378 -0.097926 -0.100283
v -2.498646 -0.049119 0.190816
v -2.817681 -0.054152 0.279547
v -2.506164 -0.047884 0.121636
v -0.580584 0.056421 0.268539
v -0.571094 0.071414 0.151479
v -2.486516 0.068311 0.067336
v -2.503950 0.044172 0.121640
v -0.571110 -0.071470 -0.151706
v 0.172064 -0.083767 -0.191579
v 0.183812 -0.122981 -0.119763
v -0.580608 -0.056467 -0.268766
v 0.183813 0.122962 -0.119764
v 0.172065 0.083746 -0.191581
v 0.109574 -0.064204 -0.339156
v 0.174750 -0.135027 0.051541
v 0.183817 -0.122981 0.119738
v 0.172086 -0.083764 0.191515
v 0.183818 0.122962 0.119739
v 0.174751 0.135011 0.051542
v 0.109573 0.064191 -0.339158
v -0.037506 -0.000002 -0.575128
v 0.174750 -0.135027 -0.051546
v 0.109613 -0.064199 0.339086
v -0.037490 -0.000002 0.575103
v 0.174751 0.135011 -0.051546
v 0.109611 0.064187 0.339088
v 0.172087 0.083742 0.191517
v 0.810553 -0.065334 -0.074589
v 0.803429 -0.083641 -0.031123
v 0.756783 -0.030847 0.223767
v 0.659218 -0.000005 0.358028
v 0.800774 0.044166 -0.125332
v 0.756783 0.030837 -0.223767
v 0.803429 0.083627 -0.031123
v 0.810553 0.065322 -0.074589
v 0.756783 0.030837 0.223767
v 0.800775 -0.044177 0.125332
v 0.803429 0.083627 0.031118
v 0.800774 0.044166 0.125332
v 0.659218 -0.000004 -0.358028
v 0.756783 -0.030847 -0.223767
v 0.810553 0.065322 0.074589
v 0.803429 -0.083642 0.031118
v 0.800775 -0.044177 -0.125332
v 0.810553 -0.065334 0.074589
v 1.286645 -0.000006 -0.000000
v -2.918174 -0.346553 -0.056496
v -2.916181 -0.346604 0.056142
v -3.307628 -0.377182 0.043531
v -3.307991 -0.377105 -0.043505
v -2.815155 0.053451 0.279498
v -3.262494 0.046078 0.328320
v -3.263479 -0.046009 0.328320
v -2.922985 0.088147 0.089547
v -3.004935 0.055760 0.165976
v -2.487824 0.068406 -0.074473
v -2.925637 0.088152 -0.088141
v -3.008258 0.163331 -0.056672
v -3.243392 -0.047294 -0.328320
v -3.242240 0.047373 -0.328320
v -2.988311 0.055372 -0.166566
v -2.504722 0.122988 0.043140
v -3.005867 0.163316 0.056305
v -2.987592 -0.164327 0.055956
v -2.990048 -0.164347 -0.056414
v -2.952962 0.348208 0.056639
v -3.639530 0.022800 -0.458650
v -3.551240 0.039289 -0.156888
v -3.323907 0.376562 0.042370
v -3.642454 0.529073 0.022800
v -3.555468 0.146286 0.043552
v -2.991007 -0.056026 -0.166595
v -2.928544 -0.086883 -0.088159
v -3.538255 -0.073376 -0.080145
v -3.551257 -0.039285 -0.156881
v -3.007567 -0.056332 0.165999
v -3.641286 -0.022800 0.458649
v -3.555259 -0.039219 0.156653
v -3.551087 -0.146477 -0.043659
v -3.324083 0.376470 -0.042357
v -3.555491 0.146206 -0.043544
v -3.642454 0.529073 -0.022800
v -3.555237 0.039226 0.156662
v -3.641286 0.022800 0.458649
v -2.925901 -0.086878 0.089565
v -3.538254 -0.073130 0.082714
v -3.551068 -0.146558 0.043664
v -4.326440 0.529073 -0.022800
v -4.326440 0.529073 0.022800
v -3.639530 -0.022800 -0.458650
v -3.960293 -0.027880 -0.113918
v -4.324490 -0.022800 -0.458649
v -3.642454 -0.529073 -0.022800
v -3.642454 -0.529073 0.022800
v -4.326440 -0.529073 0.022800
v -4.326440 -0.529073 -0.022800
v -4.324034 0.022800 0.458649
v -4.323846 -0.022800 0.458649
v -3.538254 0.075764 0.082366
v -3.927014 0.051612 0.056283
v -3.959505 0.028525 0.114410
v -3.538254 0.076017 -0.079807
v -3.927014 0.051835 -0.053764
v -3.956642 0.106020 -0.030867
v -4.324652 0.022800 -0.458649
v -3.961396 0.028628 -0.114171
v -3.957723 0.106245 0.031615
v -3.927014 -0.049239 -0.054012
v -3.959597 -0.105946 0.031728
v -3.927014 -0.049023 0.056538
v -3.958502 -0.105712 -0.030986
v -3.958414 -0.027772 0.114164
vt 0.541667 0.000000
vt 0.625000 0.000000
vt 0.625000 0.250000
vt 0.541667 0.250000
vt 0.791667 0.500000
vt 0.791667 0.500000
vt 0.791667 0.500000
vt 0.791667 0.500000
vt 0.541667 0.500000
vt 0.625000 0.500000
vt 0.625000 0.750000
vt 0.541667 0.750000
vt 0.291667 0.500000
vt 0.375000 0.500000
vt 0.375000 0.750000
vt 0.291667 0.750000
vt 0.875000 0.500000
vt 0.875000 0.750000
vt 0.791667 0.750000
vt 0.708333 0.500000
vt 0.708333 0.750000
vt 0.458333 0.000000
vt 0.458333 0.000000
vt 0.458333 0.000000
vt 0.458333 0.000000
vt 0.125000 0.500000
vt 0.208333 0.500000
vt 0.208333 0.750000
vt 0.125000 0.750000
vt 0.791667 0.750000
vt 0.458333 1.000000
vt 0.458333 0.916667
vt 0.458333 0.916667
vt 0.458333 1.000000
vt 0.541667 0.000000
vt 0.541667 0.000000
vt 0.541667 0.000000
vt 0.375000 0.916667
vt 0.375000 0.916667
vt 0.791667 0.750000
vt 0.791667 0.750000
vt 0.458333 0.500000
vt 0.458333 0.750000
vt 0.541667 0.750000
vt 0.541667 0.500000
vt 0.708333 0.500000
vt 0.708333 0.500000
vt 0.291667 0.500000
vt 0.375000 0.500000
vt 0.541667 0.250000
vt 0.541667 0.250000
vt 0.541667 0.250000
vt 0.291667 0.500000
vt 0.291667 0.500000
vt 0.208333 0.500000
vt 0.208333 0.500000
vt 0.458333 0.500000
vt 0.458333 0.500000
vt 0.458333 0.500000
vt 0.708333 0.500000
vt 0.625000 0.250000
vt 0.375000 0.000000
vt 0.458333 0.250000
vt 0.375000 0.250000
vt 0.458333 0.250000
vt 0.708333 0.750000
vt 0.291667 0.750000
vt 0.208333 0.750000
vt 0.375000 0.833333
vt 0.458333 0.833333
vt 0.458333 0.833333
vt 0.375000 0.833333
vt 0.208333 0.500000
vt 0.458333 0.750000
vt 0.458333 0.750000
vt 0.458333 0.750000
vt 0.541667 0.500000
vt 0.541667 0.500000
vt 0.625000 0.500000
vt 0.541667 0.833333
vt 0.541667 0.833333
vt 0.541667 0.750000
vt 0.125000 0.500000
vt 0.125000 0.500000
vt 0.208333 0.500000
vt 0.458333 0.250000
vt 0.458333 0.250000
vt 0.875000 0.500000
vt 0.791667 0.500000
vt 0.875000 0.500000
vt 0.375000 0.250000
vt 0.458333 0.250000
vt 0.375000 0.250000
vt 0.291667 0.500000
vt 0.291667 0.500000
vt 0.375000 0.500000
vt 0.708333 0.500000
vt 0.708333 0.500000
vt 0.541667 0.250000
vt 0.541667 0.250000
vt 0.208333 0.500000
vt 0.458333 0.500000
vt 0.458333 0.500000
vt 0.625000 0.250000
vt 0.791667 0.500000
vt 0.541667 0.500000
vt 0.541667 0.500000
vt 0.625000 0.500000
vt 0.458333 0.250000
vt 0.208333 0.500000
vt 0.208333 0.500000
vt 0.458333 0.500000
vt 0.458333 0.500000
vt 0.625000 0.250000
vt 0.541667 0.250000
vt 0.791667 0.500000
vt 0.791667 0.500000
vt 0.541667 0.500000
vt 0.541667 0.500000
vt 0.375000 0.500000
vt 0.708333 0.500000
vt 0.625000 0.500000
vt 0.458333 0.250000
vt 0.458333 0.250000
vt 0.708333 0.500000
vt 0.291667 0.500000
vt 0.125000 0.500000
vt 0.875000 0.500000
vt 0.375000 0.250000
vt 0.291667 0.500000
vt 0.625000 0.500000
vt 0.458333 0.250000
vt 0.708333 0.500000
vt 0.291667 0.500000
vt 0.208333 0.500000
vt 0.875000 0.500000
vt 0.375000 0.250000
vt 0.375000 0.500000
vt 0.541667 0.250000
vt 0.541667 0.250000
vt 0.458333 0.500000
vt 0.791667 0.500000
vt 0.541667 0.500000
vt 0.208333 0.750000
vt 0.291667 0.750000
vt 0.291667 0.750000
vt 0.208333 0.750000
vt 0.541667 0.750000
vt 0.541667 0.750000
vt 0.458333 0.750000
vt 0.541667 0.833333
vt 0.541667 0.750000
vt 0.625000 0.916667
vt 0.541667 0.916667
vt 0.541667 0.916667
vt 0.625000 0.916667
vt 0.458333 0.000000
vt 0.541667 0.000000
vt 0.541667 1.000000
vt 0.541667 1.000000
vt 0.625000 0.833333
vt 0.625000 0.833333
vt 0.291667 0.750000
vt 0.291667 0.750000
vt 0.208333 0.750000
vt 0.208333 0.750000
vt 0.708333 0.750000
vt 0.708333 0.750000
vt 0.625000 0.833333
vt 0.541667 0.916667
vt 0.541667 1.000000
vt 0.625000 0.916667
vt 0.541667 0.000000
vt 0.541667 0.000000
vt 0.541667 0.000000
vt 0.708333 0.750000
vt 0.708333 0.750000
vt 0.708333 0.750000
vt 0.708333 0.750000
vt 0.458333 1.000000
vt 0.458333 0.916667
vt 0.458333 0.916667
vt 0.458333 1.000000
vt 0.458333 0.750000
vt 0.458333 0.750000
vt 0.458333 0.750000
vt 0.375000 0.916667
vt 0.375000 0.916667
vt 0.791667 0.750000
vt 0.791667 0.750000
vt 0.791667 0.750000
vt 0.791667 0.750000
vt 0.541667 0.750000
vt 0.541667 0.750000
vt 0.375000 0.833333
vt 0.458333 0.833333
vt 0.458333 0.833333
vt 0.375000 0.833333
vt 0.458333 0.000000
vt 0.791667 0.750000
vt 0.708333 0.750000
vt 0.458333 0.000000
vt 0.458333 0.000000
vt 0.458333 0.000000
vt 0.458333 0.000000
vt 0.208333 0.750000
vt 0.291667 0.750000
vt 0.291667 0.750000
vt 0.208333 0.750000
vt 0.541667 0.750000
vt 0.458333 0.750000
vt 0.541667 0.833333
vt 0.541667 0.833333
vt 0.541667 0.750000
vt 0.625000 0.916667
vt 0.541667 0.916667
vt 0.541667 0.916667
vt 0.625000 0.916667
vt 0.541667 0.000000
vt 0.541667 1.000000
vt 0.541667 1.000000
vt 0.625000 0.833333
vt 0.625000 0.833333
vt 0.208333 0.750000
vt 0.291667 0.750000
vt 0.625000 0.833333
vt 0.625000 0.916667
vt 0.458333 0.916667
vt 0.458333 1.000000
vt 0.375000 0.833333
vt 0.458333 0.833333
vt 0.375000 0.916667
vt 0.458333 0.750000
vt 0.375000 0.916667
vt 0.375000 0.833333
vt 0.541667 1.000000
vt 0.458333 1.000000
vt 0.791667 0.750000
vt 0.708333 0.750000
vt 0.541667 0.000000
vt 0.208333 0.750000
vt 0.291667 0.750000
vn 0.0140 0.9383 -0.3455
vn -0.9948 -0.1010 0.0163
vn 0.0120 0.9484 0.3168
vn 0.0175 -0.5757 0.8175
vn 0.0190 0.5775 -0.8162
vn 0.0120 0.5166 0.8561
vn -0.0030 -0.9998 0.0177
vn 0.0246 -0.6372 -0.7703
vn 0.0025 0.0197 -0.9998
vn -0.0616 -0.8562 -0.5130
vn 0.0018 0.9986 0.0523
vn -0.0617 -0.5040 -0.8615
vn 0.2657 -0.0060 -0.9640
vn 0.0118 0.0006 -0.9999
vn 0.0182 -0.9214 0.3882
vn 0.0154 0.9930 0.1174
vn -0.9887 -0.1498 0.0000
vn -0.9987 0.0295 -0.0413
vn -0.9960 -0.0149 0.0879
vn -0.9948 0.1010 -0.0162
vn -0.9887 0.1499 0.0000
vn -0.9960 0.0148 -0.0879
vn -0.9948 -0.1010 -0.0162
vn -0.9974 -0.0146 0.0704
vn 0.0205 -0.9065 -0.4217
vn 0.0183 -0.9851 -0.1710
vn 0.0595 0.9982 -0.0007
vn 0.0607 -0.9982 -0.0008
vn -0.0213 -0.4236 0.9056
vn 0.0028 -0.0251 -0.9997
vn -0.9948 0.1010 0.0163
vn -0.0032 -0.0527 0.9986
vn -0.9974 0.0146 -0.0704
vn -0.0032 0.0513 0.9987
vn -0.0003 0.0000 1.0000
vn 0.0003 -0.0000 -1.0000
vn -0.0009 -0.9998 -0.0178
vn -0.9960 -0.0148 -0.0879
vn 0.0159 0.9927 -0.1194
vn -0.9974 -0.0146 -0.0704
vn -0.0001 0.9239 0.3826
vn 0.0178 -0.9858 0.1669
vn -0.0406 -0.8836 -0.4664
vn -0.9987 -0.0295 -0.0413
vn -0.9987 0.0295 0.0414
vn -0.9958 0.0000 -0.0910
vn -0.9960 0.0149 0.0879
vn -0.0406 0.8836 -0.4665
vn -0.0233 -0.9921 -0.1232
vn -0.0295 -0.9594 0.2806
vn -0.0407 -0.8834 0.4668
vn -0.0295 0.9593 0.2808
vn -0.0321 0.9713 -0.2358
vn -0.0295 -0.9595 -0.2803
vn -0.0321 -0.9713 0.2358
vn -0.0234 0.9921 -0.1231
vn -0.0295 0.9594 -0.2804
vn -0.0322 0.9713 0.2357
vn -0.0234 -0.9921 0.1233
vn -0.0200 0.9998 0.0000
vn -0.0234 0.9921 0.1232
vn -0.0321 -0.9712 -0.2359
vn -0.9958 0.0000 0.0910
vn -0.9974 0.0146 0.0704
vn -0.9987 -0.0295 0.0414
vn 0.0967 -0.9639 -0.2480
vn 0.0998 -0.9459 0.3088
vn 0.0798 0.9829 -0.1659
vn 0.0967 0.9639 -0.2480
vn 0.0998 0.9459 0.3087
vn 0.0798 -0.9829 0.1660
vn 0.0815 0.9967 0.0000
vn 0.0798 0.9829 0.1659
vn 0.0999 -0.9459 -0.3088
vn 0.1088 0.8840 0.4547
vn 0.0815 -0.9967 -0.0000
vn 0.1088 -0.8840 -0.4546
vn 0.1088 0.8840 -0.4546
vn 0.0798 -0.9829 -0.1660
vn 0.0967 -0.9639 0.2480
vn -0.0200 -0.9998 0.0000
vn -0.0407 0.8834 0.4668
vn 0.1382 0.9714 0.1933
vn 0.2041 -0.9113 -0.3576
vn 0.1866 0.8935 0.4085
vn 0.1705 -0.9853 -0.0000
vn 0.1866 -0.8935 -0.4085
vn 0.1866 0.8935 -0.4085
vn 0.1382 -0.9714 -0.1933
vn 0.1816 -0.9166 0.3562
vn 0.1866 -0.8935 0.4085
vn 0.1816 0.9166 0.3562
vn 0.2041 0.9113 -0.3576
vn 0.1816 -0.9166 -0.3563
vn 0.2041 -0.9113 0.3576
vn 0.1382 0.9714 -0.1933
vn 0.1816 0.9166 -0.3562
vn 0.0999 0.9459 -0.3088
vn 0.0967 0.9639 0.2480
vn 0.1088 -0.8840 0.4547
vn 0.1705 0.9854 0.0000
vn 0.1382 -0.9714 0.1933
vn 0.2041 0.9113 0.3576
vn 0.0780 -0.9970 -0.0016
vn 0.1086 -0.0017 0.9941
vn 0.0610 0.8984 0.4348
vn 0.0511 0.4475 -0.8928
vn 0.1103 -0.0017 -0.9939
vn 0.0549 0.9029 -0.4263
vn 0.0622 0.4439 0.8939
vn 0.0001 0.0011 1.0000
vn -0.0036 -0.0010 -1.0000
vn 0.3277 -0.9448 -0.0069
vn -0.0418 -0.8869 0.4600
vn 0.0118 -0.0307 0.9995
vn 0.3277 0.9448 -0.0069
vn 0.0115 -0.0007 -0.9999
vn 0.0037 0.9987 -0.0502
vn 0.2680 -0.0061 0.9634
vn -0.0017 0.3738 0.9275
vn 0.0111 0.0323 0.9994
vn -0.0167 0.9046 -0.4259
vn -0.0387 0.4443 -0.8950
vn -0.0393 0.9989 -0.0238
vn -0.0315 0.0368 0.9988
vn -0.0296 -0.9271 -0.3736
vn -0.0398 -0.9988 0.0282
vn -0.0270 -0.4015 -0.9155
vn -0.0319 0.0372 -0.9988
vn -0.0393 0.9989 0.0271
vn -0.0261 -0.4232 0.9056
vn 0.4320 0.9019 -0.0012
vn 0.0037 -0.9998 -0.0170
vn 0.0764 0.9971 -0.0016
vn 0.0565 -0.4349 0.8987
vn 0.0055 0.9999 0.0111
vn -0.0052 0.0005 -1.0000
vn 0.0456 -0.4413 -0.8962
vn 0.0019 -0.9999 0.0160
vn 0.0439 -0.9002 -0.4333
vn -0.0014 -0.0014 1.0000
vn 0.0071 0.9999 -0.0111
vn 0.0498 -0.8970 0.4393
vn 0.0000 1.0000 0.0000
vn -0.0114 -0.9996 -0.0254
vn 0.0000 -1.0000 0.0000
vn 0.0000 0.0000 1.0000
vn -0.0737 0.9194 0.3864
vn -0.0776 0.4043 -0.9113
vn -0.0000 -0.0000 -1.0000
vn -0.0727 0.9232 -0.3774
vn -0.0780 0.4271 0.9008
vn -0.0299 -0.9257 0.3772
vn -0.0321 -0.0346 -0.9989
vn -0.0316 -0.0340 0.9989
vn -0.0263 0.4286 0.9031
vn -0.0281 0.9176 -0.3965
vn 0.3121 -0.0026 -0.9500
vn -0.0272 0.4068 -0.9131
vn -0.0284 0.9160 0.4002
vn 0.3257 -0.0023 0.9455
vn 0.4134 -0.9106 -0.0017
vn -0.0399 -0.9989 -0.0250
vn -0.7533 -0.6577 -0.0062
vn -0.8716 -0.0061 0.4902
vn -0.8706 0.4920 -0.0055
vn -0.8754 -0.0061 -0.4833
vn -1.0000 -0.0000 0.0000
vn -0.8745 -0.4850 -0.0055
vn -0.7552 0.6555 -0.0062
vn -0.6862 -0.0069 -0.7273
vn -0.6877 -0.0067 0.7259
vn -0.0771 -0.4168 0.9057
vn -0.0109 0.9996 0.0267
vn -0.0127 0.0285 -0.9995
vn -0.0768 -0.3943 -0.9158
vn -0.0115 -0.9996 0.0250
vn -0.0722 -0.9325 -0.3539
vn -0.0121 0.0298 0.9995
vn -0.0108 0.9996 -0.0270
vn -0.0732 -0.9291 0.3626
vn -0.0127 -0.0288 -0.9995
vn -0.0120 -0.0301 0.9995
usemtl None
s 1
f 1/1/1 2/2/1 3/3/1 4/4/1
f 5/5/2 6/6/2 7/7/2 8/8/2
f 9/9/3 10/10/3 11/11/3 12/12/3
f 13/13/4 14/14/4 15/15/4 16/16/4
f 5/5/5 3/17/5 2/18/5 17/19/5
f 10/10/6 18/20/6 19/21/6 11/11/6
f 20/22/7 21/23/7 22/24/7 23/25/7
f 24/26/8 25/27/8 26/28/8 27/29/8
f 5/5/9 17/19/9 28/30/9 6/6/9
f 21/31/10 27/32/10 29/33/10 22/34/10
f 1/1/11 30/35/11 31/36/11 32/37/11
f 27/32/12 26/38/12 33/39/12 29/33/12
f 30/35/13 20/22/13 23/25/13 31/36/13
f 28/30/14 17/19/14 34/40/14 35/41/14
f 14/14/15 36/42/15 37/43/15 15/15/15
f 9/9/16 12/12/16 38/44/16 39/45/16
f 6/6/17 40/46/17 41/47/17 7/7/17
f 14/14/18 13/13/18 42/48/18 43/49/18
f 44/50/19 4/4/19 45/51/19 46/52/19
f 13/13/20 47/53/20 48/54/20 42/48/20
f 47/53/21 49/55/21 50/56/21 48/54/21
f 51/57/22 36/42/22 52/58/22 53/59/22
f 40/46/23 18/20/23 54/60/23 41/47/23
f 4/4/24 3/3/24 55/61/24 45/51/24
f 27/62/25 21/23/25 56/63/25 24/64/25
f 56/63/26 21/23/26 20/22/26 57/65/26
f 40/46/27 6/6/27 28/30/27 58/66/27
f 49/55/28 47/53/28 59/67/28 60/68/28
f 16/69/29 15/70/29 61/71/29 62/72/29
f 26/28/30 25/27/30 49/55/30 60/68/30
f 49/55/31 25/27/31 63/73/31 50/56/31
f 19/21/32 18/20/32 40/46/32 58/66/32
f 36/42/33 14/14/33 43/49/33 52/58/33
f 13/13/34 16/16/34 59/67/34 47/53/34
f 51/57/35 39/45/35 38/44/35 64/74/35
f 20/22/36 30/35/36 44/50/36 57/65/36
f 37/43/37 64/74/37 65/75/37 66/76/37
f 9/9/38 39/45/38 53/77/38 67/78/38
f 1/1/39 4/4/39 44/50/39 30/35/39
f 10/10/40 9/9/40 67/78/40 68/79/40
f 12/12/41 11/80/41 69/81/41 70/82/41
f 37/43/42 36/42/42 51/57/42 64/74/42
f 63/73/43 71/83/43 72/84/43 73/85/43
f 18/20/44 10/10/44 68/79/44 54/60/44
f 25/27/45 24/26/45 71/83/45 63/73/45
f 39/45/46 51/57/46 53/77/46
f 56/63/47 57/65/47 46/86/47 74/87/47
f 55/88/48 8/8/48 75/89/48 76/90/48
f 71/91/49 74/87/49 77/92/49 72/93/49
f 42/48/50 48/54/50 78/94/50 79/95/50
f 43/49/51 42/48/51 79/95/51 80/96/51
f 41/47/52 54/60/52 81/97/52 82/98/52
f 46/52/53 45/51/53 83/99/53 84/100/53
f 50/56/54 63/73/54 73/85/54 85/101/54
f 53/59/55 52/58/55 86/102/55 87/103/55
f 45/51/56 55/61/56 76/104/56 83/99/56
f 8/8/57 7/7/57 88/105/57 75/89/57
f 67/78/58 53/77/58 87/106/58 89/107/58
f 52/58/59 43/49/59 80/96/59 86/102/59
f 7/7/60 41/47/60 82/98/60 88/105/60
f 68/79/61 67/78/61 89/107/61 90/108/61
f 74/87/62 46/86/62 84/109/62 77/92/62
f 57/65/63 44/50/63 46/86/63
f 24/64/64 56/63/64 74/87/64 71/91/64
f 3/17/65 5/5/65 8/8/65 55/88/65
f 85/101/66 73/85/66 91/110/66 92/111/66
f 87/103/67 86/102/67 93/112/67 94/113/67
f 83/99/68 76/104/68 95/114/68 96/115/68
f 75/89/69 88/105/69 97/116/69 98/117/69
f 89/107/70 87/106/70 94/118/70 99/119/70
f 86/102/71 80/96/71 100/120/71 93/112/71
f 88/105/72 82/98/72 101/121/72 97/116/72
f 90/108/73 89/107/73 99/119/73 102/122/73
f 77/92/74 84/109/74 103/123/74 104/124/74
f 81/97/75 90/108/75 102/122/75 105/125/75
f 78/94/76 85/101/76 92/111/76 106/126/76
f 73/85/77 72/84/77 107/127/77 91/110/77
f 76/90/78 75/89/78 98/117/78 95/128/78
f 72/93/79 77/92/79 104/124/79 107/129/79
f 79/95/80 78/94/80 106/126/80 108/130/80
f 48/54/81 50/56/81 85/101/81 78/94/81
f 54/60/82 68/79/82 90/108/82 81/97/82
f 102/122/83 99/119/83 109/131/83
f 104/124/84 103/123/84 109/132/84
f 105/125/85 102/122/85 109/133/85
f 106/126/86 92/111/86 109/134/86
f 91/110/87 107/127/87 109/135/87
f 95/128/88 98/117/88 109/136/88
f 107/129/89 104/124/89 109/137/89
f 108/130/90 106/126/90 109/134/90
f 100/120/91 108/130/91 109/138/91
f 101/121/92 105/125/92 109/133/92
f 103/139/93 96/115/93 109/140/93
f 92/111/94 91/110/94 109/135/94
f 94/113/95 93/112/95 109/141/95
f 96/115/96 95/114/96 109/140/96
f 98/117/97 97/116/97 109/142/97
f 84/100/98 83/99/98 96/115/98 103/139/98
f 82/98/99 81/97/99 105/125/99 101/121/99
f 80/96/100 79/95/100 108/130/100 100/120/100
f 97/116/101 101/121/101 109/142/101
f 93/112/102 100/120/102 109/141/102
f 99/119/103 94/118/103 109/143/103
f 110/144/104 111/145/104 112/146/104 113/147/104
f 65/75/105 114/148/105 115/149/105 116/150/105
f 70/82/106 69/81/106 117/151/106 118/152/106
f 34/153/107 119/154/107 120/155/107 121/156/107
f 31/36/108 23/25/108 122/157/108 123/158/108
f 119/154/109 32/159/109 124/160/109 120/155/109
f 69/81/110 125/161/110 126/162/110 117/151/110
f 111/145/111 62/163/111 127/164/111 112/146/111
f 33/165/112 110/144/112 113/147/112 128/166/112
f 60/68/113 59/67/113 111/145/113 110/144/113
f 15/70/114 37/43/114 66/76/114 61/71/114
f 19/21/115 58/66/115 129/167/115 125/168/115
f 58/66/116 28/30/116 35/41/116 129/167/116
f 26/28/117 60/68/117 110/144/117 33/165/117
f 38/44/118 12/12/118 70/82/118 114/148/118
f 64/74/119 38/44/119 114/148/119 65/75/119
f 11/80/120 19/169/120 125/161/120 69/81/120
f 59/67/121 16/16/121 62/163/121 111/145/121
f 2/170/122 1/171/122 32/159/122 119/154/122
f 17/172/123 2/170/123 119/154/123 34/153/123
f 124/173/124 123/158/124 130/174/124 131/175/124
f 126/176/125 132/177/125 133/178/125 134/179/125
f 135/180/126 136/181/126 137/182/126 138/183/126
f 139/184/127 116/150/127 140/185/127 141/186/127
f 136/181/128 128/187/128 142/188/128 137/182/128
f 143/189/129 121/190/129 144/191/129 145/192/129
f 115/149/130 118/152/130 146/193/130 147/194/130
f 127/195/131 148/196/131 149/197/131 150/198/131
f 132/177/132 143/189/132 145/192/132 133/178/132
f 23/25/133 22/24/133 135/199/133 122/157/133
f 129/167/134 35/41/134 143/189/134 132/177/134
f 62/72/135 61/71/135 148/196/135 127/195/135
f 114/148/136 70/82/136 118/152/136 115/149/136
f 35/41/137 34/40/137 121/190/137 143/189/137
f 29/33/138 33/39/138 128/187/138 136/181/138
f 66/76/139 65/75/139 116/150/139 139/184/139
f 22/34/140 29/33/140 136/181/140 135/180/140
f 125/168/141 129/167/141 132/177/141 126/176/141
f 32/37/142 31/36/142 123/158/142 124/173/142
f 61/71/143 66/76/143 139/184/143 148/196/143
f 133/178/144 145/192/144 151/200/144 152/201/144
f 153/202/145 138/203/145 154/204/145 155/205/145
f 156/206/146 157/207/146 158/208/146 159/209/146
f 140/185/147 147/194/147 160/210/147 161/211/147
f 146/193/148 162/212/148 163/213/148 164/214/148
f 144/215/149 165/216/149 166/217/149 167/218/149
f 130/174/150 153/202/150 155/205/150 168/219/150
f 165/216/151 131/220/151 169/221/151 166/217/151
f 162/212/152 134/222/152 170/223/152 163/213/152
f 148/196/153 139/184/153 141/186/153 149/197/153
f 128/166/154 113/147/154 156/206/154 142/224/154
f 112/146/155 127/164/155 150/225/155 157/207/155
f 117/151/156 126/162/156 134/222/156 162/212/156
f 120/155/157 124/160/157 131/220/157 165/216/157
f 123/158/158 122/157/158 153/202/158 130/174/158
f 121/156/159 120/155/159 165/216/159 144/215/159
f 118/152/160 117/151/160 162/212/160 146/193/160
f 116/150/161 115/149/161 147/194/161 140/185/161
f 113/147/162 112/146/162 157/207/162 156/206/162
f 122/157/163 135/199/163 138/203/163 153/202/163
f 167/218/164 170/223/164 152/226/164 151/227/164
f 171/228/165 166/217/165 169/221/165 154/229/165
f 172/230/166 173/231/166 171/228/166 174/232/166
f 175/233/167 164/214/167 163/213/167 173/231/167
f 173/231/168 163/213/168 166/217/168 171/228/168
f 163/213/169 170/223/169 167/218/169 166/217/169
f 172/230/170 174/232/170 159/234/170 158/235/170
f 164/214/171 175/233/171 161/211/171 160/210/171
f 154/229/172 169/221/172 168/236/172 155/237/172
f 150/198/173 149/197/173 173/231/173 172/230/173
f 147/194/174 146/193/174 164/214/174 160/210/174
f 145/192/175 144/191/175 167/238/175 151/200/175
f 137/182/176 142/188/176 174/232/176 171/228/176
f 141/186/177 140/185/177 161/211/177 175/233/177
f 138/183/178 137/182/178 171/228/178 154/229/178
f 134/179/179 133/178/179 152/201/179 170/239/179
f 131/175/180 130/174/180 168/219/180 169/240/180
f 149/197/181 141/186/181 175/233/181 173/231/181
f 142/224/182 156/206/182 159/209/182 174/241/182
f 157/207/183 150/225/183 172/242/183 158/208/183
