# Blender v2.80 (sub 75) OBJ File: 'lego_cutout.blend'
# www.blender.org
mtllib cutout.mtl
o Cube.002
v 4.310445 44.793701 -11.999992
v 2.321038 44.588116 -11.999992
v 2.321039 44.588108 12.000008
v 4.310445 44.793694 12.000008
v 8.936109 0.032065 12.000000
v 6.946702 -0.173520 12.000000
v 6.946702 -0.173516 -12.000000
v 8.936109 0.032069 -12.000000
v 4.310445 44.793701 -11.999992
v 4.310445 44.793694 12.000008
v 8.936109 0.032065 12.000000
v 8.936109 0.032069 -12.000000
vt 0.999822 0.799111
vt 0.999822 0.399822
vt 0.999822 0.399822
vt 0.999822 0.799111
vt 0.866371 0.000178
vt 0.866370 0.665660
vt 0.866370 0.665660
vt 0.866371 0.000178
vt 0.866015 0.665660
vt 0.866015 0.000178
vt 0.866015 0.000178
vt 0.866015 0.665660
vt 0.933274 0.000178
vt 0.933274 0.399466
vt 0.933274 0.399466
vt 0.933274 0.000178
vt 0.933274 0.799111
vt 0.933274 0.399822
vt 0.799466 0.665660
vt 0.799467 0.000178
vt 0.399467 0.000178
vt 0.399467 0.665659
vt 0.000178 0.665659
vt 0.000178 0.000178
vt 0.999822 0.399466
vt 0.999822 0.000178
vt 0.932918 0.000178
vt 0.932918 0.665660
vt 0.799111 0.000178
vt 0.799111 0.665659
vt 0.399822 0.665659
vt 0.399822 0.000178
vn 0.0000 0.0000 0.0000
vn -0.1028 0.9947 0.0000
vn 0.0000 -0.0000 1.0000
vn -0.9947 -0.1028 -0.0000
vn 0.1028 -0.9947 -0.0000
vn 0.0000 0.0000 -1.0000
vn 0.9947 0.1028 0.0000
usemtl Material
s 1
f 1/1/1 4/2/1 10/3/1 9/4/1
f 8/5/1 1/6/1 9/7/1 12/8/1
f 4/9/1 5/10/1 11/11/1 10/12/1
f 5/13/1 8/14/1 12/15/1 11/16/1
usemtl Lego
f 1/1/2 2/17/2 3/18/2 4/2/2
f 5/10/3 4/9/3 3/19/3 6/20/3
f 6/21/4 3/22/4 2/23/4 7/24/4
f 7/25/5 8/14/5 5/13/5 6/26/5
f 7/27/6 2/28/6 1/6/6 8/5/6
f 12/29/7 9/30/7 10/31/7 11/32/7
