# Blender v2.80 (sub 75) OBJ File: 'terrain.blend'
# www.blender.org
mtllib path.mtl
o Plane
v -16.530199 0.950634 16.530199
v 16.530199 0.950634 16.530199
v -16.530199 0.950634 -16.530199
v 16.530199 0.950634 -16.530199
v -16.530199 0.924034 -8.265100
v -16.530199 0.000000 0.000000
v -16.530199 0.924034 8.265100
v -8.265100 0.924034 16.530199
v 0.000000 0.000000 16.530199
v 8.265100 0.924034 16.530199
v 16.530199 0.924034 8.265100
v 16.530199 0.000000 0.000000
v 16.530199 0.924034 -8.265100
v 8.265100 0.924034 -16.530199
v 0.000000 0.000000 -16.530199
v -8.265100 0.924034 -16.530199
v -8.265100 0.924034 8.265100
v -8.265100 0.000000 0.000000
v -8.265100 0.924034 -8.265100
v 0.000000 0.000000 8.265100
v 0.000000 0.000000 0.000000
v 0.000000 0.000000 -8.265100
v 8.265100 0.000000 8.265100
v 8.265100 0.000000 0.000000
v 8.265100 0.000000 -8.265100
vt 0.250000 0.250000
vt 0.000000 0.250000
vt 0.000000 0.000000
vt 0.250000 0.000000
vt 1.000000 0.250000
vt 0.750000 0.250000
vt 0.750000 0.000000
vt 1.000000 0.000000
vt 0.500000 0.250000
vt 0.500000 0.000000
vt 1.000000 1.000000
vt 0.750000 1.000000
vt 0.750000 0.750000
vt 1.000000 0.750000
vt 0.750000 0.500000
vt 1.000000 0.500000
vt 0.500000 1.000000
vt 0.500000 0.750000
vt 0.500000 0.500000
vt 0.250000 1.000000
vt 0.250000 0.750000
vt 0.250000 0.500000
vt 0.000000 1.000000
vt 0.000000 0.750000
vt 0.000000 0.500000
vn -0.0573 0.9967 0.0573
vn 0.0016 1.0000 0.0016
vn 0.1111 0.9938 0.0000
vn -0.0557 0.9969 0.0557
vn 0.0016 1.0000 -0.0016
vn 0.0000 0.9938 -0.1111
vn 0.0000 0.9938 0.1111
vn 0.0557 0.9969 -0.0557
vn 0.0557 0.9969 0.0557
vn -0.0557 0.9969 -0.0557
vn 0.0000 1.0000 0.0000
vn -0.0573 0.9967 -0.0573
usemtl path
s off
f 25/1/1 13/2/1 4/3/1 14/4/1
f 5/5/2 19/6/2 16/7/2 3/8/2
f 19/6/3 22/9/3 15/10/3 16/7/3
f 22/9/4 25/1/4 14/4/4 15/10/4
f 1/11/5 8/12/5 17/13/5 7/14/5
f 7/14/6 17/13/6 18/15/6 6/16/6
f 6/16/7 18/15/7 19/6/7 5/5/7
f 8/12/3 9/17/3 20/18/3 17/13/3
f 17/13/8 20/18/8 21/19/8 18/15/8
f 18/15/9 21/19/9 22/9/9 19/6/9
f 9/17/10 10/20/10 23/21/10 20/18/10
f 20/18/11 23/21/11 24/22/11 21/19/11
f 21/19/11 24/22/11 25/1/11 22/9/11
f 10/20/12 2/23/12 11/24/12 23/21/12
f 23/21/10 11/24/10 12/25/10 24/22/10
f 24/22/4 12/25/4 13/2/4 25/1/4
