# Blender v2.80 (sub 75) OBJ File: ''
# www.blender.org
mtllib terrain_north.mtl
o Cube.005_Cube.015
v 8.270212 30.066549 -16.622652
v 7.751428 31.483120 -13.457068
v 16.486950 31.483120 -13.457068
v 16.540634 30.066549 -16.622652
v -8.250000 31.999998 8.250005
v -16.499996 31.999998 8.250005
v -16.499996 31.999998 16.500006
v -8.250000 31.999998 16.500006
v 16.500000 31.999998 8.250005
v 8.250000 31.999998 8.250005
v 8.250000 31.999998 16.500006
v 16.500000 31.999998 16.500006
v 0.000000 31.999998 8.250005
v 0.000000 31.999998 16.500006
v 8.250000 32.000000 -8.249995
v 16.500000 32.000000 -8.249995
v 8.250000 32.000000 0.000005
v 16.500000 32.000000 0.000005
v 0.007745 31.483120 -13.457068
v 0.000000 32.000000 -8.249995
v 0.000000 32.000000 0.000005
v -7.735938 31.483120 -13.457068
v -8.250000 32.000000 -8.249995
v -8.250000 32.000000 0.000005
v -16.471458 31.483120 -13.457068
v -16.499996 32.000000 -8.249995
v -16.499996 32.000000 0.000005
v 8.250000 -0.999997 -16.500000
v 8.250000 7.250003 -16.499998
v 16.500000 7.250003 -16.499998
v 16.500000 -0.999997 -16.500000
v 8.250000 25.646273 -16.499996
v 16.500000 25.646273 -16.499996
v 8.120436 29.668957 -15.715571
v 16.519272 29.668957 -15.715571
v -16.499996 -0.999997 -16.500000
v -16.499996 7.250003 -16.499998
v -8.250000 7.250003 -16.499998
v -8.250000 -0.999997 -16.500000
v 0.000000 7.250003 -16.499998
v 0.000000 -0.999997 -16.500000
v -16.499996 25.646273 -16.499996
v -8.250000 25.646273 -16.499996
v 0.000000 25.646273 -16.499996
v -16.517437 29.668957 -15.715571
v -16.541056 30.066549 -16.622652
v -8.270633 30.066549 -16.622652
v -8.118605 29.668957 -15.715571
v -0.000211 30.066549 -16.622652
v 0.000915 29.668957 -15.715571
vt 0.323202 0.774901
vt 0.342585 0.772001
vt 0.342585 0.815281
vt 0.323202 0.821124
vt 0.464050 0.682569
vt 0.464049 0.636459
vt 0.510159 0.636459
vt 0.510159 0.682569
vt 0.464049 0.820897
vt 0.464049 0.774788
vt 0.510159 0.774788
vt 0.510159 0.820897
vt 0.464049 0.728678
vt 0.510159 0.728678
vt 0.371831 0.774788
vt 0.371831 0.820897
vt 0.417940 0.774788
vt 0.417940 0.820897
vt 0.342585 0.728721
vt 0.371831 0.728678
vt 0.417940 0.728678
vt 0.342585 0.685442
vt 0.371831 0.682569
vt 0.417940 0.682569
vt 0.342585 0.642162
vt 0.371831 0.636459
vt 0.417940 0.636459
vt 0.886687 0.046448
vt 0.840578 0.046448
vt 0.840578 0.000338
vt 0.886687 0.000338
vt 0.737761 0.046448
vt 0.737761 0.000338
vt 0.317667 0.774063
vt 0.317667 0.819444
vt 0.886687 0.184776
vt 0.840578 0.184776
vt 0.840578 0.138667
vt 0.886687 0.138667
vt 0.840578 0.092557
vt 0.886687 0.092557
vt 0.737761 0.184776
vt 0.737761 0.138667
vt 0.737761 0.092557
vt 0.317666 0.637923
vt 0.323202 0.636230
vt 0.323202 0.682453
vt 0.317667 0.683303
vt 0.323202 0.728677
vt 0.317667 0.728683
vt 0.714854 0.092552
vt 0.714854 0.047172
vt 0.714854 0.137932
vt 0.714854 0.183312
vt 0.714854 0.001792
vn 0.0000 -0.0038 -1.0000
vn 0.0000 0.9664 -0.2569
vn 0.0000 0.9663 -0.2576
vn 0.0000 0.0006 -1.0000
vn 0.0000 1.0000 0.0000
vn 0.0000 0.9988 -0.0495
vn 0.0000 0.9988 -0.0494
vn 0.0000 0.9662 -0.2577
vn 0.0000 0.0000 -1.0000
vn 0.0000 0.0961 -0.9954
vn 0.0000 0.0963 -0.9954
vn 0.0000 -0.4640 -0.8858
vn 0.0000 -0.4699 -0.8827
vn 0.0000 -0.4703 -0.8825
vn 0.0000 -0.0011 -1.0000
usemtl Default_OBJ
s 1
f 1/1/1 2/2/2 3/3/3 4/4/4
f 5/5/5 6/6/5 7/7/5 8/8/5
f 9/9/5 10/10/5 11/11/5 12/12/5
f 10/10/5 13/13/5 14/14/5 11/11/5
f 13/13/5 5/5/5 8/8/5 14/14/5
f 3/3/3 2/2/2 15/15/6 16/16/7
f 16/16/7 15/15/6 17/17/5 18/18/5
f 18/18/5 17/17/5 10/10/5 9/9/5
f 2/2/2 19/19/2 20/20/6 15/15/6
f 15/15/6 20/20/6 21/21/5 17/17/5
f 17/17/5 21/21/5 13/13/5 10/10/5
f 19/19/2 22/22/2 23/23/6 20/20/6
f 20/20/6 23/23/6 24/24/5 21/21/5
f 21/21/5 24/24/5 5/5/5 13/13/5
f 22/22/2 25/25/8 26/26/7 23/23/6
f 23/23/6 26/26/7 27/27/5 24/24/5
f 24/24/5 27/27/5 6/6/5 5/5/5
f 28/28/9 29/29/9 30/30/9 31/31/9
f 29/29/9 32/32/10 33/33/11 30/30/9
f 34/34/12 1/1/1 4/4/4 35/35/13
f 36/36/9 37/37/9 38/38/9 39/39/9
f 39/39/9 38/38/9 40/40/9 41/41/9
f 41/41/9 40/40/9 29/29/9 28/28/9
f 37/37/9 42/42/11 43/43/10 38/38/9
f 38/38/9 43/43/10 44/44/10 40/40/9
f 40/40/9 44/44/10 32/32/10 29/29/9
f 45/45/14 46/46/15 47/47/1 48/48/12
f 48/48/12 47/47/1 49/49/1 50/50/12
f 50/50/12 49/49/1 1/1/1 34/34/12
f 46/46/15 25/25/8 22/22/2 47/47/1
f 47/47/1 22/22/2 19/19/2 49/49/1
f 49/49/1 19/19/2 2/2/2 1/1/1
f 44/44/10 50/51/12 34/52/12 32/32/10
f 43/43/10 48/53/12 50/51/12 44/44/10
f 42/42/11 45/54/14 48/53/12 43/43/10
f 32/32/10 34/52/12 35/55/13 33/33/11
