# Blender v2.80 (sub 75) OBJ File: ''
# www.blender.org
mtllib terrain_east.mtl
o Cube.006_Cube.016
v 17.893883 30.066544 8.032739
v 15.046173 31.483114 7.589606
v 13.469845 31.483114 16.524179
v 16.622322 30.066544 16.540733
v -6.180855 31.999996 8.250010
v -16.500000 31.999996 8.250010
v -16.500000 31.999996 16.500011
v -8.250000 31.999996 16.500011
v 11.962914 31.999996 8.250010
v 8.250000 31.999996 16.500011
v 3.943317 31.999996 8.250010
v 0.000000 31.999996 16.500011
v 13.469845 31.483122 -16.514105
v 8.250000 32.000008 -16.499989
v 11.962914 32.000000 -8.249990
v 16.144722 31.483122 -7.738646
v 14.802994 32.000000 0.000010
v 17.243267 31.483118 0.164151
v 0.000000 32.000008 -16.499989
v 3.943317 32.000000 -8.249990
v 6.088478 32.000000 0.000010
v -8.250000 32.000008 -16.499989
v -5.980791 32.000000 -8.249990
v -4.514713 32.000000 0.000010
v -16.500000 32.000008 -16.499989
v -16.500000 32.000000 -8.249990
v -16.500000 32.000000 0.000010
v 16.500000 -1.000002 8.250000
v 15.748428 7.249998 8.250002
v 16.500000 7.249994 16.500004
v 16.500000 -1.000006 16.500000
v 18.175709 25.646267 8.250008
v 16.500000 25.646267 16.500008
v 17.166821 29.668951 8.004458
v 15.718037 29.668951 16.480225
v 16.500000 -0.999994 -16.500000
v 16.500000 7.250006 -16.499996
v 17.491684 7.250002 -8.249998
v 16.500000 -0.999998 -8.250000
v 18.215622 7.250000 0.000002
v 16.500000 -1.000000 -0.000000
v 16.500000 25.646275 -16.499992
v 18.650909 25.646275 -8.249992
v 16.668766 21.221928 0.000006
v 15.718037 29.668959 -16.477108
v 16.622322 30.066551 -16.540956
v 18.701523 30.066551 -8.270536
v 17.797119 29.668959 -8.117966
v 19.540298 30.066547 -0.072150
v 17.233448 29.415840 -0.033805
vt 0.016842 0.472038
vt 0.034784 0.470171
vt 0.041803 0.514517
vt 0.022555 0.519834
vt 0.153900 0.475684
vt 0.212746 0.475759
vt 0.212575 0.522930
vt 0.165404 0.522759
vt 0.051897 0.474496
vt 0.071251 0.521275
vt 0.096694 0.475345
vt 0.118254 0.522342
vt 0.039556 0.345218
vt 0.069335 0.337214
vt 0.051836 0.385075
vt 0.029496 0.389489
vt 0.038739 0.429456
vt 0.025926 0.430222
vt 0.116981 0.335397
vt 0.096126 0.383118
vt 0.085260 0.429326
vt 0.164428 0.334515
vt 0.152241 0.381946
vt 0.144490 0.428905
vt 0.211759 0.333937
vt 0.212338 0.381267
vt 0.212746 0.428538
vt 0.140988 0.888958
vt 0.141281 0.842199
vt 0.187939 0.842529
vt 0.187678 0.889219
vt 0.140822 0.738696
vt 0.187939 0.738639
vt 0.012333 0.473057
vt 0.016871 0.519606
vt 0.000759 0.888835
vt 0.000595 0.842171
vt 0.047379 0.841770
vt 0.047423 0.888671
vt 0.093443 0.841614
vt 0.094184 0.888574
vt 0.000338 0.738402
vt 0.047873 0.739100
vt 0.094670 0.763852
vt 0.013385 0.340564
vt 0.019183 0.340859
vt 0.013392 0.387726
vt 0.007827 0.387321
vt 0.012661 0.428828
vt 0.000338 0.430150
vt 0.094218 0.717397
vt 0.139765 0.715533
vt 0.048292 0.716149
vt 0.001099 0.715289
vt 0.187186 0.715171
vn 0.9826 -0.0413 0.1813
vn 0.3056 0.9494 0.0726
vn 0.2620 0.9636 0.0530
vn 0.9863 0.0415 0.1595
vn 0.0000 1.0000 0.0000
vn 0.0756 0.9969 0.0237
vn 0.0464 0.9988 0.0143
vn 0.2472 0.9660 -0.0753
vn 0.0409 0.9990 -0.0153
vn 0.0658 0.9976 -0.0210
vn 0.3144 0.9469 -0.0673
vn 0.1050 0.9945 0.0057
vn 0.3544 0.9347 0.0257
vn 0.9987 -0.0062 0.0514
vn 0.9981 -0.0262 0.0557
vn 0.9999 -0.0102 0.0052
vn 0.9979 0.0455 -0.0455
vn 0.9981 0.0465 0.0411
vn 0.9897 0.0793 0.1196
vn 0.8524 -0.5191 0.0627
vn 0.8948 -0.4168 0.1600
vn 0.9964 -0.0599 -0.0599
vn 0.9913 -0.0455 -0.1237
vn 0.9967 -0.0608 -0.0533
vn 0.9925 -0.1110 -0.0516
vn 0.9963 -0.0589 0.0620
vn 0.9925 -0.1104 0.0525
vn 0.9726 0.0856 -0.2164
vn 0.9977 0.0522 -0.0442
vn 0.9983 0.0047 0.0581
vn 0.8744 -0.4317 -0.2216
vn 0.9665 0.0085 -0.2565
vn 0.9817 -0.0617 -0.1802
vn 0.8290 -0.5556 -0.0634
vn 0.9956 -0.0840 0.0424
vn 0.8275 -0.5606 0.0300
usemtl Default_OBJ
s 1
f 1/1/1 2/2/2 3/3/3 4/4/4
f 5/5/5 6/6/5 7/7/5 8/8/5
f 2/2/2 9/9/6 10/10/7 3/3/3
f 9/9/6 11/11/5 12/12/5 10/10/7
f 11/11/5 5/5/5 8/8/5 12/12/5
f 13/13/8 14/14/9 15/15/10 16/16/11
f 16/16/11 15/15/10 17/17/12 18/18/13
f 18/18/13 17/17/12 9/9/6 2/2/2
f 14/14/9 19/19/5 20/20/5 15/15/10
f 15/15/10 20/20/5 21/21/5 17/17/12
f 17/17/12 21/21/5 11/11/5 9/9/6
f 19/19/5 22/22/5 23/23/5 20/20/5
f 20/20/5 23/23/5 24/24/5 21/21/5
f 21/21/5 24/24/5 5/5/5 11/11/5
f 22/22/5 25/25/5 26/26/5 23/23/5
f 23/23/5 26/26/5 27/27/5 24/24/5
f 24/24/5 27/27/5 6/6/5 5/5/5
f 28/28/14 29/29/15 30/30/16 31/31/17
f 29/29/15 32/32/18 33/33/19 30/30/16
f 34/34/20 1/1/1 4/4/4 35/35/21
f 36/36/22 37/37/23 38/38/24 39/39/25
f 39/39/25 38/38/24 40/40/26 41/41/27
f 41/41/27 40/40/26 29/29/15 28/28/14
f 37/37/23 42/42/28 43/43/29 38/38/24
f 38/38/24 43/43/29 44/44/30 40/40/26
f 40/40/26 44/44/30 32/32/18 29/29/15
f 45/45/31 46/46/32 47/47/33 48/48/34
f 48/48/34 47/47/33 49/49/35 50/50/36
f 50/50/36 49/49/35 1/1/1 34/34/20
f 46/46/32 13/13/8 16/16/11 47/47/33
f 47/47/33 16/16/11 18/18/13 49/49/35
f 49/49/35 18/18/13 2/2/2 1/1/1
f 44/44/30 50/51/36 34/52/20 32/32/18
f 43/43/29 48/53/34 50/51/36 44/44/30
f 42/42/28 45/54/31 48/53/34 43/43/29
f 32/32/18 34/52/20 35/55/21 33/33/19
