# Blender v2.80 (sub 75) OBJ File: 'terrain.blend'
# www.blender.org
mtllib terrain.mtl
o Cube.007_Cube.017
v -16.500000 -1.000000 16.500000
v -17.504889 31.483118 13.467129
v -16.500000 32.000000 -16.500000
v 16.500000 -1.000000 16.500000
v 11.682270 31.483118 11.420212
v 16.500000 -1.000000 -16.500000
v 13.469845 31.483118 -17.507607
v -16.500000 7.250000 16.500000
v -16.500000 25.646271 16.500000
v -16.459366 30.066547 16.622410
v -16.500000 32.000000 8.250000
v -16.500000 32.000000 0.000000
v -16.500000 32.000000 -8.250000
v -8.250000 32.000000 -16.500000
v 0.000000 32.000000 -16.500000
v 8.250000 32.000000 -16.500000
v 16.622322 30.066547 -16.459278
v 16.500000 25.646271 -16.500000
v 16.500000 7.250000 -16.500000
v 16.500000 -1.000000 8.250000
v 16.500000 -1.000000 0.000000
v 16.500000 -1.000000 -8.250000
v 13.469845 31.483118 -9.763922
v 11.021049 31.483118 -2.020241
v 13.469845 31.483118 5.723446
v 14.834747 30.066547 14.575497
v 14.970573 25.646271 14.328835
v 15.026924 7.250000 14.279526
v -8.250000 -1.000000 16.500000
v 0.000000 -1.000000 16.500000
v 8.250000 -1.000000 16.500000
v 5.726158 31.483118 13.467129
v -2.017521 31.483118 11.241100
v -9.761206 31.483118 11.241100
v 8.250000 32.000000 -8.250000
v 5.073372 32.000000 0.000000
v 6.864449 32.000000 5.748009
v 0.000000 32.000000 -8.250000
v -3.176628 32.000000 0.000000
v -1.385555 32.000000 3.521980
v -8.250000 32.000000 -8.250000
v -8.250000 32.000000 0.000000
v -8.250000 32.000000 6.023972
v 8.250000 7.250000 16.500000
v 0.000000 7.250000 16.760506
v -8.250000 7.250000 16.500000
v 8.250000 25.646271 16.500000
v 0.000000 22.355059 16.740829
v -8.250000 25.646271 15.265717
v 8.351906 30.066547 16.622410
v 0.081478 30.066547 14.396381
v -8.188944 30.066547 14.396381
v 16.500000 7.250000 -8.250000
v 15.799122 7.250000 0.000000
v 16.500000 7.250000 8.250000
v 16.500000 25.646271 -8.250000
v 14.051201 25.646271 0.000000
v 16.500000 25.646271 8.250000
v 16.622322 30.066547 -8.188856
v 14.173523 30.066547 0.081570
v 16.622322 30.066547 8.351990
v -16.760044 29.668955 15.718666
v 15.718037 29.668955 -16.759413
v 14.199448 28.448442 14.206936
v 7.598518 29.668955 15.718666
v -0.521004 29.668955 13.492638
v -8.640524 29.668955 13.492638
v 15.718037 29.668955 -8.639893
v 13.269241 29.668955 -0.520374
v 15.718037 29.668955 7.599148
vt 0.723393 0.658751
vt 0.731791 0.646208
vt 0.740483 0.665175
vt 0.730194 0.674612
vt 0.833210 0.700921
vt 0.843182 0.681356
vt 0.885646 0.692544
vt 0.880211 0.710809
vt 0.836479 0.651862
vt 0.880268 0.665130
vt 0.759716 0.643592
vt 0.759607 0.675983
vt 0.801040 0.635807
vt 0.800630 0.677801
vt 0.726894 0.525234
vt 0.754234 0.529899
vt 0.753532 0.572373
vt 0.728428 0.564144
vt 0.768559 0.615326
vt 0.735984 0.603246
vt 0.797811 0.530502
vt 0.796588 0.573827
vt 0.811470 0.617918
vt 0.841718 0.531841
vt 0.840139 0.575607
vt 0.838210 0.619429
vt 0.885646 0.533499
vt 0.883943 0.577416
vt 0.882045 0.621347
vt 0.190825 0.287237
vt 0.232735 0.285483
vt 0.234190 0.327530
vt 0.192403 0.329047
vt 0.327466 0.282078
vt 0.327901 0.324839
vt 0.834091 0.707080
vt 0.879343 0.716407
vt 0.179999 0.163771
vt 0.226172 0.162144
vt 0.228364 0.200682
vt 0.186405 0.204119
vt 0.230759 0.243336
vt 0.189011 0.245585
vt 0.320413 0.163576
vt 0.322346 0.198103
vt 0.307815 0.240214
vt 0.725261 0.679671
vt 0.746545 0.683835
vt 0.748262 0.688110
vt 0.784949 0.694223
vt 0.787757 0.699499
vt 0.187397 0.123765
vt 0.229290 0.128742
vt 0.322175 0.133698
vt 0.719407 0.656642
vt 0.196415 0.000338
vt 0.237680 0.002741
vt 0.235388 0.044103
vt 0.194012 0.041603
vt 0.232967 0.086101
vt 0.191404 0.082820
vt 0.329590 0.007374
vt 0.327323 0.048429
vt 0.326607 0.091318
vt 0.704265 0.530315
vt 0.709264 0.531404
vt 0.712640 0.571576
vt 0.707493 0.570421
vt 0.715353 0.616158
vt 0.709703 0.613009
vt 0.347292 0.090132
vt 0.342461 0.132183
vt 0.347802 0.047771
vt 0.350116 0.007248
vt 0.334664 0.165445
vt 0.348505 0.241534
vt 0.350116 0.282832
vt 0.343054 0.199291
vt 0.348802 0.325705
vn 0.9757 0.1999 0.0898
vn 0.2969 0.9541 -0.0378
vn 0.1616 0.9744 0.1561
vn 0.7226 0.1397 0.6769
vn 0.1055 -0.0039 0.9944
vn 0.0418 0.9718 0.2321
vn 0.0731 0.9621 0.2628
vn 0.2650 -0.0045 0.9642
vn 0.0097 0.9989 0.0460
vn 0.0179 0.9978 0.0642
vn 0.0319 0.9992 0.0236
vn -0.0291 0.9570 0.2886
vn -0.0014 0.9995 0.0292
vn -0.0184 0.9702 0.2414
vn 0.2513 0.9679 0.0000
vn 0.0521 0.9986 0.0000
vn 0.0569 0.9983 0.0128
vn 0.2600 0.9651 0.0308
vn 0.0343 0.9994 -0.0011
vn 0.2203 0.9752 0.0203
vn 0.0000 1.0000 0.0000
vn -0.0079 -0.0079 0.9999
vn -0.0096 0.0137 0.9998
vn 0.0373 0.0167 0.9991
vn 0.0000 0.0000 1.0000
vn 0.0485 0.2270 0.9727
vn 0.1379 0.1759 0.9747
vn 0.1127 -0.3743 0.9204
vn 0.2029 -0.4089 0.8897
vn 0.6975 0.1564 0.6993
vn 0.7359 0.0772 0.6726
vn 0.1262 0.0324 0.9915
vn 0.0806 0.0648 0.9946
vn -0.0168 0.0016 0.9998
vn 0.0000 -0.0158 0.9998
vn 0.7343 0.1192 0.6682
vn 0.1108 0.1435 0.9834
vn -0.0579 0.1490 0.9871
vn 0.6635 -0.2285 0.7124
vn 0.1130 0.2246 0.9679
vn -0.0164 -0.3828 0.9236
vn -0.1974 -0.0056 0.9803
vn -0.0811 -0.3511 0.9328
vn 0.9969 0.0725 0.0299
vn 0.9984 0.0487 0.0286
vn 0.9934 0.1131 0.0190
vn 0.9030 -0.4238 -0.0700
vn 1.0000 0.0000 0.0000
vn 0.9981 0.0223 0.0576
vn 0.9995 0.0212 0.0212
vn 0.9990 0.0449 0.0000
vn 0.9991 0.0424 0.0000
vn 0.9952 0.0977 0.0000
vn 0.9861 0.1135 0.1210
vn 0.9931 0.1165 -0.0121
vn 0.9148 -0.4039 0.0000
vn 1.0000 -0.0043 0.0000
vn 0.9856 -0.0033 0.1691
vn 0.8623 -0.4934 0.1139
vn 0.9912 -0.0066 -0.1323
vn 0.9038 -0.4266 0.0337
s 1
f 61/1/1 25/2/2 5/3/3 26/4/4
f 52/5/5 34/6/6 2/7/7 10/8/8
f 43/9/9 11/10/10 2/7/7 34/6/6
f 25/2/2 37/11/11 32/12/12 5/3/3
f 37/11/11 40/13/13 33/14/14 32/12/12
f 40/13/13 43/9/9 34/6/6 33/14/14
f 7/15/15 16/16/16 35/17/17 23/18/18
f 23/18/18 35/17/17 36/19/19 24/20/20
f 24/20/20 36/19/19 37/11/11 25/2/2
f 16/16/16 15/21/21 38/22/21 35/17/17
f 35/17/17 38/22/21 39/23/21 36/19/19
f 36/19/19 39/23/21 40/13/13 37/11/11
f 15/21/21 14/24/21 41/25/21 38/22/21
f 38/22/21 41/25/21 42/26/21 39/23/21
f 39/23/21 42/26/21 43/9/9 40/13/13
f 14/24/21 3/27/21 13/28/21 41/25/21
f 41/25/21 13/28/21 12/29/21 42/26/21
f 42/26/21 12/29/21 11/10/10 43/9/9
f 29/30/22 46/31/23 8/32/24 1/33/25
f 46/31/23 49/34/26 9/35/27 8/32/24
f 67/36/28 52/5/5 10/8/8 62/37/29
f 4/38/30 28/39/31 44/40/32 31/41/33
f 31/41/33 44/40/32 45/42/34 30/43/35
f 30/43/35 45/42/34 46/31/23 29/30/22
f 28/39/31 27/44/36 47/45/37 44/40/32
f 44/40/32 47/45/37 48/46/38 45/42/34
f 45/42/34 48/46/38 49/34/26 46/31/23
f 64/47/39 26/4/4 50/48/40 65/49/41
f 65/49/41 50/48/40 51/50/42 66/51/43
f 66/51/43 51/50/42 52/5/5 67/36/28
f 26/4/4 5/3/3 32/12/12 50/48/40
f 50/48/40 32/12/12 33/14/14 51/50/42
f 51/50/42 33/14/14 34/6/6 52/5/5
f 20/52/44 55/53/45 28/39/31 4/38/30
f 55/53/45 58/54/46 27/44/36 28/39/31
f 70/55/47 61/1/1 26/4/4 64/47/39
f 6/56/48 19/57/48 53/58/49 22/59/50
f 22/59/50 53/58/49 54/60/51 21/61/52
f 21/61/52 54/60/51 55/53/45 20/52/44
f 19/57/48 18/62/53 56/63/54 53/58/49
f 53/58/49 56/63/54 57/64/55 54/60/51
f 54/60/51 57/64/55 58/54/46 55/53/45
f 63/65/56 17/66/57 59/67/58 68/68/59
f 68/68/59 59/67/58 60/69/60 69/70/61
f 69/70/61 60/69/60 61/1/1 70/55/47
f 17/66/57 7/15/15 23/18/18 59/67/58
f 59/67/58 23/18/18 24/20/20 60/69/60
f 60/69/60 24/20/20 25/2/2 61/1/1
f 57/64/55 69/71/61 70/72/47 58/54/46
f 56/63/54 68/73/59 69/71/61 57/64/55
f 18/62/53 63/74/56 68/73/59 56/63/54
f 58/54/46 70/72/47 64/75/39 27/44/36
f 48/46/38 66/76/43 67/77/28 49/34/26
f 47/45/37 65/78/41 66/76/43 48/46/38
f 27/44/36 64/75/39 65/78/41 47/45/37
f 49/34/26 67/77/28 62/79/29 9/35/27
