# Blender v2.80 (sub 75) OBJ File: 'terrain.blend'
# www.blender.org
mtllib terrain.mtl
o Cube.002_Cube.012
v -16.499996 -1.000000 16.500000
v -13.454350 31.483118 15.492393
v -16.499996 -1.000000 -16.500000
v -13.454350 31.483118 -15.482339
v 16.500004 32.000000 16.500000
v 16.500004 32.000000 -16.500000
v -16.499996 -1.000000 -8.250000
v -16.499996 -1.000000 0.000000
v -16.499996 -1.000000 8.250000
v -16.499996 7.250000 16.500000
v -16.499996 25.646271 16.500000
v -16.622742 30.066547 16.540722
v -11.142780 31.483118 9.217433
v -11.135700 31.483118 0.005027
v -14.585560 31.549362 -7.738656
v -16.622742 30.066547 -16.540968
v -16.499996 25.646271 -16.500000
v -16.499996 7.250000 -16.500000
v -8.249996 32.000000 -16.500000
v 0.000004 32.000000 -16.500000
v 8.250004 32.000000 -16.500000
v 16.500004 32.000000 -8.250000
v 16.500004 32.000000 0.000000
v 16.500004 32.000000 8.250000
v 8.250004 32.000000 16.500000
v 0.000004 32.000000 16.500000
v -8.249996 32.000000 16.500000
v 8.250004 32.000000 -8.250000
v 8.250004 32.000000 0.000000
v 8.250004 32.000000 8.250000
v 0.000004 32.000000 -8.250000
v 0.000004 32.000000 0.000000
v 0.000004 32.000000 8.250000
v -9.381207 32.066242 -8.250000
v -5.931347 32.000000 0.000000
v -8.249996 32.000000 8.250000
v -16.499996 7.250000 8.250000
v -16.499996 7.250000 0.000000
v -16.499996 7.250000 -8.250000
v -14.188423 25.646271 9.718723
v -16.499996 25.646271 0.000000
v -17.631207 24.605251 -8.250000
v -14.311169 30.066547 9.739022
v -14.304092 30.066547 -0.000123
v -17.753952 29.025528 -8.270546
v -15.716202 29.668955 16.240587
v -15.716202 29.668955 -16.237494
v -13.404629 29.668955 9.589789
v -13.397552 29.668955 0.001546
v -16.847412 28.627937 -8.117974
vt 0.668312 0.519893
vt 0.663452 0.502112
vt 0.703698 0.496348
vt 0.708626 0.517042
vt 0.564768 0.473781
vt 0.558212 0.491348
vt 0.519867 0.499248
vt 0.517242 0.470374
vt 0.564140 0.332199
vt 0.564966 0.378421
vt 0.518909 0.378779
vt 0.518299 0.332901
vt 0.565348 0.425292
vt 0.518918 0.424622
vt 0.703057 0.327683
vt 0.704773 0.374121
vt 0.658267 0.375877
vt 0.656618 0.329399
vt 0.611534 0.377458
vt 0.610234 0.331003
vt 0.706590 0.420563
vt 0.660100 0.422534
vt 0.612758 0.424570
vt 0.708626 0.466876
vt 0.663322 0.474648
vt 0.613672 0.459389
vt 0.615039 0.491491
vt 0.889477 0.374974
vt 0.842513 0.374881
vt 0.842547 0.327877
vt 0.889562 0.327950
vt 0.744439 0.374583
vt 0.738127 0.327683
vt 0.666879 0.524557
vt 0.707675 0.522865
vt 0.889562 0.515654
vt 0.842783 0.515862
vt 0.842348 0.469090
vt 0.889353 0.468874
vt 0.842378 0.421928
vt 0.889356 0.421961
vt 0.737978 0.519808
vt 0.735586 0.478591
vt 0.737819 0.421325
vt 0.514250 0.520184
vt 0.510835 0.515808
vt 0.553581 0.512500
vt 0.555566 0.518031
vt 0.616800 0.514096
vt 0.615392 0.519982
vt 0.709302 0.424049
vt 0.721313 0.375261
vt 0.711944 0.478529
vt 0.714832 0.518482
vt 0.714881 0.328867
vn -0.9886 -0.1274 0.0801
vn -0.3583 0.9317 0.0598
vn -0.3110 0.9501 -0.0230
vn -0.9794 -0.0045 -0.2018
vn -0.0696 0.9975 -0.0099
vn -0.2610 0.9646 -0.0379
vn -0.3185 0.9423 -0.1028
vn -0.0593 0.9982 -0.0094
vn 0.0000 1.0000 0.0000
vn 0.0019 1.0000 -0.0019
vn 0.0020 1.0000 -0.0002
vn 0.0011 1.0000 0.0008
vn -0.0409 0.9991 -0.0117
vn -0.0563 0.9984 0.0080
vn -0.0433 0.9990 0.0068
vn -0.2693 0.9619 0.0458
vn -1.0000 0.0000 0.0000
vn -0.9998 -0.0158 0.0000
vn -0.9992 -0.0158 -0.0352
vn -0.9918 0.1267 0.0180
vn -0.9917 0.0901 -0.0920
vn -0.9091 -0.4055 0.0957
vn -0.8258 -0.5338 -0.1819
vn -0.9965 0.0341 -0.0761
vn -0.9995 0.0313 -0.0026
vn -0.9987 0.0064 0.0495
vn -0.9653 0.1157 -0.2341
vn -0.9796 0.1888 -0.0687
vn -0.9636 0.2327 0.1313
vn -0.8025 -0.5289 -0.2760
vn -0.9442 -0.0030 -0.3292
vn -0.9786 -0.0048 -0.2056
vn -0.9198 -0.3771 -0.1081
vn -0.9615 0.0000 0.2745
vn -0.9219 -0.3362 0.1924
s 1
f 45/1/1 15/2/2 4/3/3 16/4/4
f 36/5/5 13/6/6 2/7/7 27/8/8
f 24/9/9 30/10/9 25/11/9 5/12/9
f 30/10/9 33/13/9 26/14/9 25/11/9
f 33/13/9 36/5/5 27/8/8 26/14/9
f 6/15/9 21/16/9 28/17/9 22/18/9
f 22/18/9 28/17/9 29/19/9 23/20/9
f 23/20/9 29/19/9 30/10/9 24/9/9
f 21/16/9 20/21/10 31/22/11 28/17/9
f 28/17/9 31/22/11 32/23/12 29/19/9
f 29/19/9 32/23/12 33/13/9 30/10/9
f 20/21/10 19/24/13 34/25/14 31/22/11
f 31/22/11 34/25/14 35/26/15 32/23/12
f 32/23/12 35/26/15 36/5/5 33/13/9
f 19/24/13 4/3/3 15/2/2 34/25/14
f 34/25/14 15/2/2 14/27/16 35/26/15
f 35/26/15 14/27/16 13/6/6 36/5/5
f 7/28/17 39/29/18 18/30/19 3/31/17
f 39/29/18 42/32/20 17/33/21 18/30/19
f 50/34/22 45/1/1 16/4/4 47/35/23
f 1/36/17 10/37/24 37/38/25 9/39/17
f 9/39/17 37/38/25 38/40/26 8/41/17
f 8/41/17 38/40/26 39/29/18 7/28/17
f 10/37/24 11/42/27 40/43/28 37/38/25
f 37/38/25 40/43/28 41/44/29 38/40/26
f 38/40/26 41/44/29 42/32/20 39/29/18
f 46/45/30 12/46/31 43/47/32 48/48/33
f 48/48/33 43/47/32 44/49/34 49/50/35
f 49/50/35 44/49/34 45/1/1 50/34/22
f 12/46/31 2/7/7 13/6/6 43/47/32
f 43/47/32 13/6/6 14/27/16 44/49/34
f 44/49/34 14/27/16 15/2/2 45/1/1
f 41/44/29 49/51/35 50/52/22 42/32/20
f 40/43/28 48/53/33 49/51/35 41/44/29
f 11/42/27 46/54/30 48/53/33 40/43/28
f 42/32/20 50/52/22 47/55/23 17/33/21
