# Blender v2.80 (sub 75) OBJ File: 'terrain.blend'
# www.blender.org
mtllib terrain.mtl
o Cube.005_Cube.015
v -16.499996 32.000000 16.500000
v -16.499996 -1.000000 -16.500000
v -15.479618 31.483118 -13.457073
v 16.500000 32.000000 16.500000
v 16.500000 -1.000000 -16.500000
v 15.495111 31.483118 -13.457073
v -16.499996 32.000000 8.250000
v -16.499996 32.000000 0.000000
v -16.499996 32.000000 -8.250000
v -16.541056 30.066547 -16.622658
v -16.499996 25.646271 -16.500000
v -16.499996 7.250000 -16.500000
v 8.250000 -1.000000 -16.500000
v 0.000000 -1.000000 -16.500000
v -8.250000 -1.000000 -16.500000
v -7.735938 31.483118 -13.457073
v 0.007745 31.483118 -13.457073
v 7.751428 31.483118 -13.457073
v 16.540634 30.066547 -16.622658
v 16.500000 25.646271 -16.500000
v 16.500000 7.250000 -16.500000
v 16.500000 32.000000 -8.250000
v 16.500000 32.000000 0.000000
v 16.500000 32.000000 8.250000
v 8.250000 32.000000 16.500000
v 0.000000 32.000000 16.500000
v -8.250000 32.000000 16.500000
v 8.250000 32.000000 -8.250000
v 8.250000 32.000000 0.000000
v 8.250000 32.000000 8.250000
v 0.000000 32.000000 -8.250000
v 0.000000 32.000000 0.000000
v 0.000000 32.000000 8.250000
v -8.250000 32.000000 -8.250000
v -8.250000 32.000000 0.000000
v -8.250000 32.000000 8.250000
v -8.250000 7.250000 -16.500000
v 0.000000 7.250000 -16.500000
v 8.250000 7.250000 -16.500000
v -8.250000 25.646271 -16.500000
v 0.000000 25.646271 -16.500000
v 8.250000 25.646271 -16.500000
v -8.270633 30.066547 -16.622658
v -0.000211 30.066547 -16.622658
v 8.270212 30.066547 -16.622658
v -16.238121 29.668955 -15.715576
v 16.239956 29.668955 -15.715576
v -8.118605 29.668955 -15.715576
v 0.000915 29.668955 -15.715576
v 8.120436 29.668955 -15.715576
vt 0.323202 0.774901
vt 0.342585 0.772001
vt 0.342585 0.815281
vt 0.323202 0.821124
vt 0.464050 0.682569
vt 0.464049 0.636459
vt 0.510159 0.636459
vt 0.510159 0.682569
vt 0.464049 0.820897
vt 0.464049 0.774788
vt 0.510159 0.774788
vt 0.510159 0.820897
vt 0.464049 0.728678
vt 0.510159 0.728678
vt 0.371831 0.774788
vt 0.371831 0.820897
vt 0.417940 0.774788
vt 0.417940 0.820897
vt 0.342585 0.728721
vt 0.371831 0.728678
vt 0.417940 0.728678
vt 0.342585 0.685442
vt 0.371831 0.682569
vt 0.417940 0.682569
vt 0.342585 0.642162
vt 0.371831 0.636459
vt 0.417940 0.636459
vt 0.886687 0.046448
vt 0.840578 0.046448
vt 0.840578 0.000338
vt 0.886687 0.000338
vt 0.737761 0.046448
vt 0.737761 0.000338
vt 0.317667 0.774063
vt 0.317667 0.819444
vt 0.886687 0.184776
vt 0.840578 0.184776
vt 0.840578 0.138667
vt 0.886687 0.138667
vt 0.840578 0.092557
vt 0.886687 0.092557
vt 0.737761 0.184776
vt 0.737761 0.138667
vt 0.737761 0.092557
vt 0.317666 0.637923
vt 0.323202 0.636230
vt 0.323202 0.682453
vt 0.317667 0.683303
vt 0.323202 0.728677
vt 0.317667 0.728683
vt 0.714854 0.092552
vt 0.714854 0.047172
vt 0.714854 0.137932
vt 0.714854 0.183312
vt 0.714854 0.001792
vn 0.0000 -0.0038 -1.0000
vn 0.0000 0.9664 -0.2569
vn 0.0000 0.9652 -0.2614
vn 0.0000 -0.0021 -1.0000
vn 0.0000 1.0000 0.0000
vn 0.0000 0.9987 -0.0494
vn 0.0000 0.9989 -0.0463
vn 0.0000 0.9989 -0.0462
vn 0.0000 0.0000 -1.0000
vn 0.0000 0.0961 -0.9954
vn 0.0000 0.0941 -0.9955
vn 0.0000 -0.4640 -0.8858
vn 0.0000 -0.5102 -0.8600
vn 0.0000 -0.5105 -0.8599
vn 0.0000 -0.0040 -1.0000
s 1
f 45/1/1 18/2/2 6/3/3 19/4/4
f 36/5/5 7/6/5 1/7/5 27/8/5
f 24/9/5 30/10/5 25/11/5 4/12/5
f 30/10/5 33/13/5 26/14/5 25/11/5
f 33/13/5 36/5/5 27/8/5 26/14/5
f 6/3/3 18/2/2 28/15/6 22/16/7
f 22/16/7 28/15/6 29/17/5 23/18/5
f 23/18/5 29/17/5 30/10/5 24/9/5
f 18/2/2 17/19/2 31/20/6 28/15/6
f 28/15/6 31/20/6 32/21/5 29/17/5
f 29/17/5 32/21/5 33/13/5 30/10/5
f 17/19/2 16/22/2 34/23/6 31/20/6
f 31/20/6 34/23/6 35/24/5 32/21/5
f 32/21/5 35/24/5 36/5/5 33/13/5
f 16/22/2 3/25/3 9/26/8 34/23/6
f 34/23/6 9/26/8 8/27/5 35/24/5
f 35/24/5 8/27/5 7/6/5 36/5/5
f 13/28/9 39/29/9 21/30/9 5/31/9
f 39/29/9 42/32/10 20/33/11 21/30/9
f 50/34/12 45/1/1 19/4/4 47/35/13
f 2/36/9 12/37/9 37/38/9 15/39/9
f 15/39/9 37/38/9 38/40/9 14/41/9
f 14/41/9 38/40/9 39/29/9 13/28/9
f 12/37/9 11/42/11 40/43/10 37/38/9
f 37/38/9 40/43/10 41/44/10 38/40/9
f 38/40/9 41/44/10 42/32/10 39/29/9
f 46/45/14 10/46/15 43/47/1 48/48/12
f 48/48/12 43/47/1 44/49/1 49/50/12
f 49/50/12 44/49/1 45/1/1 50/34/12
f 10/46/15 3/25/3 16/22/2 43/47/1
f 43/47/1 16/22/2 17/19/2 44/49/1
f 44/49/1 17/19/2 18/2/2 45/1/1
f 41/44/10 49/51/12 50/52/12 42/32/10
f 40/43/10 48/53/12 49/51/12 41/44/10
f 11/42/11 46/54/14 48/53/12 40/43/10
f 42/32/10 50/52/12 47/55/13 20/33/11
